<svg width="25" height="24" viewBox="0 0 25 24" fill="none" xmlns="http://www.w3.org/2000/svg">
<g clip-path="url(#clip0_2_1781)">
<path d="M19.3077 16.9001C20.5229 16.6533 21.603 15.9639 22.3384 14.9655C23.0738 13.9672 23.4121 12.7312 23.2874 11.4976C23.1628 10.2639 22.5843 9.12052 21.6641 8.28943C20.7439 7.45834 19.5477 6.99881 18.3077 7.00006H17.0477C16.7164 5.71737 16.0718 4.53705 15.1716 3.56504C14.2715 2.59304 13.1441 1.85979 11.8906 1.43112C10.637 1.00245 9.29671 0.891787 7.98987 1.10906C6.68303 1.32634 5.4506 1.86475 4.40324 2.67596C3.35588 3.48718 2.52636 4.54579 1.98917 5.75677C1.45198 6.96774 1.22392 8.29317 1.32549 9.61405C1.42705 10.9349 1.85505 12.2099 2.57106 13.3245C3.28706 14.4391 4.26867 15.3585 5.42773 16.0001" stroke="black" stroke-width="2" stroke-linecap="round" stroke-linejoin="round"/>
<path d="M13.3077 11L9.30774 17H15.3077L11.3077 23" stroke="black" stroke-width="2" stroke-linecap="round" stroke-linejoin="round"/>
</g>
<defs>
<clipPath id="clip0_2_1781">
<rect width="24" height="24" fill="white" transform="translate(0.307739)"/>
</clipPath>
</defs>
</svg>
