<svg width="25" height="24" viewBox="0 0 25 24" fill="none" xmlns="http://www.w3.org/2000/svg">
<g clip-path="url(#clip0_2_1776)">
<path d="M16.8462 13V21" stroke="black" stroke-width="2" stroke-linecap="round" stroke-linejoin="round"/>
<path d="M8.84619 13V21" stroke="black" stroke-width="2" stroke-linecap="round" stroke-linejoin="round"/>
<path d="M12.8462 15V23" stroke="black" stroke-width="2" stroke-linecap="round" stroke-linejoin="round"/>
<path d="M20.8462 16.58C21.8974 16.1195 22.7583 15.3115 23.2842 14.2915C23.8102 13.2715 23.9693 12.1016 23.7348 10.9781C23.5002 9.85472 22.8864 8.84617 21.9962 8.12179C21.1061 7.39742 19.9938 7.00131 18.8462 6.99996H17.5862C17.2692 5.77248 16.665 4.63791 15.8235 3.68976C14.9819 2.74161 13.9271 2.00703 12.7459 1.54658C11.5648 1.08612 10.2911 0.912974 9.02985 1.0414C7.76862 1.16983 6.55597 1.59615 5.49186 2.28524C4.42774 2.97433 3.54263 3.90644 2.90947 5.00475C2.27631 6.10307 1.91324 7.33613 1.85018 8.60231C1.78711 9.86849 2.02587 11.1315 2.54677 12.2873C3.06766 13.4431 3.85578 14.4585 4.84616 15.25" stroke="black" stroke-width="2" stroke-linecap="round" stroke-linejoin="round"/>
</g>
<defs>
<clipPath id="clip0_2_1776">
<rect width="24" height="24" fill="white" transform="translate(0.846191)"/>
</clipPath>
</defs>
</svg>
