<svg width="25" height="24" viewBox="0 0 25 24" fill="none" xmlns="http://www.w3.org/2000/svg">
<g clip-path="url(#clip0_2_1768)">
<path d="M20.3846 17.58C21.4359 17.1195 22.2967 16.3115 22.8227 15.2915C23.3487 14.2715 23.5077 13.1016 23.2732 11.9781C23.0387 10.8547 22.4248 9.84617 21.5347 9.12179C20.6445 8.39742 19.5323 8.00131 18.3846 7.99996H17.1246C16.8076 6.77248 16.2035 5.63791 15.3619 4.68976C14.5204 3.74161 13.4656 3.00703 12.2844 2.54658C11.1032 2.08612 9.82952 1.91297 8.5683 2.0414C7.30707 2.16983 6.09443 2.59615 5.03031 3.28524C3.96619 3.97433 3.08108 4.90644 2.44792 6.00475C1.81476 7.10307 1.45169 8.33613 1.38863 9.60231C1.32557 10.8685 1.56432 12.1315 2.08522 13.2873C2.60612 14.4431 3.39423 15.4585 4.38462 16.25" stroke="black" stroke-width="2" stroke-linecap="round" stroke-linejoin="round"/>
<path d="M8.38464 16H8.39464" stroke="black" stroke-width="2" stroke-linecap="round" stroke-linejoin="round"/>
<path d="M8.38464 20H8.39464" stroke="black" stroke-width="2" stroke-linecap="round" stroke-linejoin="round"/>
<path d="M12.3846 18H12.3946" stroke="black" stroke-width="2" stroke-linecap="round" stroke-linejoin="round"/>
<path d="M12.3846 22H12.3946" stroke="black" stroke-width="2" stroke-linecap="round" stroke-linejoin="round"/>
<path d="M16.3846 16H16.3946" stroke="black" stroke-width="2" stroke-linecap="round" stroke-linejoin="round"/>
<path d="M16.3846 20H16.3946" stroke="black" stroke-width="2" stroke-linecap="round" stroke-linejoin="round"/>
</g>
<defs>
<clipPath id="clip0_2_1768">
<rect width="24" height="24" fill="white" transform="translate(0.384644)"/>
</clipPath>
</defs>
</svg>
