<svg width="25" height="24" viewBox="0 0 25 24" fill="none" xmlns="http://www.w3.org/2000/svg">
<g clip-path="url(#clip0_2_1766)">
<path d="M18.9231 10H17.6631C17.289 8.551 16.5159 7.23599 15.4317 6.2044C14.3476 5.1728 12.9958 4.46599 11.53 4.16428C10.0642 3.86256 8.54318 3.97804 7.13974 4.49759C5.7363 5.01714 4.50672 5.91993 3.59074 7.10338C2.67475 8.28683 2.10907 9.70348 1.95799 11.1924C1.80691 12.6812 2.07647 14.1826 2.73606 15.526C3.39564 16.8693 4.4188 18.0007 5.68927 18.7916C6.95973 19.5824 8.42656 20.0011 9.92308 20H18.9231C20.2492 20 21.5209 19.4732 22.4586 18.5355C23.3963 17.5979 23.9231 16.3261 23.9231 15C23.9231 13.6739 23.3963 12.4021 22.4586 11.4645C21.5209 10.5268 20.2492 10 18.9231 10Z" stroke="black" stroke-width="2" stroke-linecap="round" stroke-linejoin="round"/>
</g>
<defs>
<clipPath id="clip0_2_1766">
<rect width="24" height="24" fill="white" transform="translate(0.923096)"/>
</clipPath>
</defs>
</svg>
