<svg width="25" height="24" viewBox="0 0 25 24" fill="none" xmlns="http://www.w3.org/2000/svg">
<g clip-path="url(#clip0_2_1784)">
<path d="M8.76929 19V21" stroke="black" stroke-width="2" stroke-linecap="round" stroke-linejoin="round"/>
<path d="M8.76929 13V15" stroke="black" stroke-width="2" stroke-linecap="round" stroke-linejoin="round"/>
<path d="M16.7693 19V21" stroke="black" stroke-width="2" stroke-linecap="round" stroke-linejoin="round"/>
<path d="M16.7693 13V15" stroke="black" stroke-width="2" stroke-linecap="round" stroke-linejoin="round"/>
<path d="M12.7693 21V23" stroke="black" stroke-width="2" stroke-linecap="round" stroke-linejoin="round"/>
<path d="M12.7693 15V17" stroke="black" stroke-width="2" stroke-linecap="round" stroke-linejoin="round"/>
<path d="M20.7693 16.58C21.8205 16.1195 22.6814 15.3115 23.2073 14.2915C23.7333 13.2715 23.8924 12.1016 23.6579 10.9781C23.4233 9.85472 22.8095 8.84617 21.9193 8.12179C21.0292 7.39742 19.9169 7.00131 18.7693 6.99996H17.5093C17.1923 5.77248 16.5881 4.63791 15.7466 3.68976C14.905 2.74161 13.8502 2.00703 12.669 1.54658C11.4879 1.08612 10.2142 0.912974 8.95294 1.0414C7.69172 1.16983 6.47907 1.59615 5.41495 2.28524C4.35084 2.97433 3.46572 3.90644 2.83256 5.00475C2.1994 6.10307 1.83633 7.33613 1.77327 8.60231C1.71021 9.86849 1.94897 11.1315 2.46986 12.2873C2.99076 13.4431 3.77888 14.4585 4.76926 15.25" stroke="black" stroke-width="2" stroke-linecap="round" stroke-linejoin="round"/>
</g>
<defs>
<clipPath id="clip0_2_1784">
<rect width="24" height="24" fill="white" transform="translate(0.769287)"/>
</clipPath>
</defs>
</svg>
