<svg width="25" height="24" viewBox="0 0 25 24" fill="none" xmlns="http://www.w3.org/2000/svg">
<path d="M21.5385 10C21.5385 17 12.5385 23 12.5385 23C12.5385 23 3.53851 17 3.53851 10C3.53851 7.61305 4.48672 5.32387 6.17455 3.63604C7.86238 1.94821 10.1516 1 12.5385 1C14.9255 1 17.2146 1.94821 18.9025 3.63604C20.5903 5.32387 21.5385 7.61305 21.5385 10Z" stroke="black" stroke-width="2" stroke-linecap="round" stroke-linejoin="round"/>
<path d="M12.5385 13C14.1954 13 15.5385 11.6569 15.5385 10C15.5385 8.34315 14.1954 7 12.5385 7C10.8817 7 9.53851 8.34315 9.53851 10C9.53851 11.6569 10.8817 13 12.5385 13Z" stroke="black" stroke-width="2" stroke-linecap="round" stroke-linejoin="round"/>
</svg>
