<svg width="24" height="24" viewBox="0 0 24 24" fill="none" xmlns="http://www.w3.org/2000/svg">
<path d="M9.00006 7.75004C9.00006 5.00004 6.42006 3.24004 6.31006 3.17004C6.14469 3.05827 5.94966 2.99854 5.75006 2.99854C5.55046 2.99854 5.35543 3.05827 5.19006 3.17004C5.08006 3.25004 2.50006 5.00004 2.50006 7.75004C2.50006 8.612 2.84247 9.43865 3.45196 10.0481C4.06146 10.6576 4.88811 11 5.75006 11C6.61201 11 7.43866 10.6576 8.04816 10.0481C8.65765 9.43865 9.00006 8.612 9.00006 7.75004ZM5.75006 9.00004C5.41854 9.00004 5.1006 8.86835 4.86618 8.63393C4.63176 8.39951 4.50006 8.08156 4.50006 7.75004C4.58235 6.80192 5.03071 5.92314 5.75006 5.30004C6.4737 5.91977 6.92302 6.80042 7.00006 7.75004C7.00006 8.08156 6.86836 8.39951 6.63394 8.63393C6.39952 8.86835 6.08158 9.00004 5.75006 9.00004ZM11.8101 10.17C11.6447 10.0583 11.4497 9.99853 11.2501 9.99853C11.0505 9.99853 10.8554 10.0583 10.6901 10.17C10.5201 10.29 6.50006 13.07 6.50006 17.25C6.50006 18.5098 7.00051 19.718 7.8913 20.6088C8.7821 21.4996 9.99028 22 11.2501 22C12.5098 22 13.718 21.4996 14.6088 20.6088C15.4996 19.718 16.0001 18.5098 16.0001 17.25C16.0001 13 12.0001 10.28 11.8101 10.17ZM11.2501 20C10.8889 20 10.5313 19.9289 10.1977 19.7907C9.86404 19.6525 9.56088 19.4499 9.30552 19.1946C9.05016 18.9392 8.84759 18.6361 8.70939 18.3024C8.57119 17.9688 8.50006 17.6112 8.50006 17.25C8.50006 14.94 10.3101 13.08 11.2601 12.25C12.2001 13.04 14.0001 14.88 14.0001 17.25C14.0001 17.6112 13.9289 17.9688 13.7907 18.3024C13.6525 18.6361 13.45 18.9392 13.1946 19.1946C12.9392 19.4499 12.6361 19.6525 12.3024 19.7907C11.9688 19.9289 11.6112 20 11.2501 20ZM18.0601 2.17004C17.8947 2.05827 17.6997 1.99854 17.5001 1.99854C17.3005 1.99854 17.1054 2.05827 16.9401 2.17004C16.8001 2.27004 13.5001 4.55004 13.5001 8.00004C13.5001 9.06091 13.9215 10.0783 14.6716 10.8285C15.4218 11.5786 16.4392 12 17.5001 12C18.5609 12 19.5783 11.5786 20.3285 10.8285C21.0786 10.0783 21.5001 9.06091 21.5001 8.00004C21.5001 4.51004 18.2001 2.26004 18.0601 2.17004ZM17.5001 10C16.9696 10 16.4609 9.78933 16.0858 9.41426C15.7108 9.03918 15.5001 8.53048 15.5001 8.00004C15.5686 7.27796 15.7808 6.57687 16.1243 5.93802C16.4678 5.29917 16.9355 4.73546 17.5001 4.28004C18.0667 4.73352 18.5359 5.29676 18.8796 5.93599C19.2233 6.57522 19.4343 7.27727 19.5001 8.00004C19.5001 8.53048 19.2893 9.03918 18.9143 9.41426C18.5392 9.78933 18.0305 10 17.5001 10Z" fill="black"/>
</svg>
