<svg width="25" height="24" viewBox="0 0 25 24" fill="none" xmlns="http://www.w3.org/2000/svg">
<rect width="24" height="24" transform="translate(0.615417)" fill="white"/>
<path d="M21.7754 16.13L19.7754 14.98L20.6654 14.74C20.7961 14.7095 20.9194 14.6531 21.0278 14.574C21.1362 14.4949 21.2276 14.3948 21.2965 14.2797C21.3655 14.1645 21.4105 14.0367 21.429 13.9037C21.4475 13.7708 21.439 13.6355 21.4041 13.5059C21.3692 13.3763 21.3085 13.2551 21.2258 13.1495C21.143 13.0438 21.0398 12.9559 20.9224 12.8909C20.8049 12.826 20.6756 12.7854 20.5421 12.7715C20.4086 12.7576 20.2737 12.7707 20.1454 12.81L17.3254 13.57L14.6154 12L17.3254 10.43L20.1454 11.19H20.4054C20.6706 11.2245 20.9387 11.1522 21.1506 10.989C21.3625 10.8259 21.5009 10.5852 21.5354 10.32C21.5699 10.0548 21.4976 9.78673 21.3344 9.57482C21.1713 9.3629 20.9306 9.22448 20.6654 9.19L19.7754 9L21.7754 7.85C21.8897 7.78434 21.9899 7.69682 22.0703 7.59243C22.1507 7.48805 22.2098 7.36885 22.2441 7.24163C22.2785 7.11441 22.2875 6.98168 22.2705 6.85099C22.2536 6.72031 22.2111 6.59425 22.1454 6.48C22.0798 6.36575 21.9922 6.26555 21.8878 6.18513C21.7835 6.1047 21.6643 6.04562 21.537 6.01126C21.4098 5.97691 21.2771 5.96794 21.1464 5.98488C21.0157 6.00182 20.8897 6.04434 20.7754 6.11L18.6154 7.37L18.9154 6.26C18.9547 6.13169 18.9679 5.99677 18.9539 5.86328C18.94 5.7298 18.8994 5.60048 18.8345 5.48303C18.7695 5.36558 18.6816 5.2624 18.576 5.17965C18.4703 5.09689 18.3491 5.03625 18.2195 5.00133C18.0899 4.96642 17.9546 4.95795 17.8217 4.97642C17.6887 4.9949 17.5609 5.03994 17.4457 5.10886C17.3306 5.17779 17.2305 5.26919 17.1514 5.37762C17.0723 5.48605 17.0159 5.60929 16.9854 5.74L16.1654 8.74L13.6154 10.27V7.14L15.6854 5.07C15.8717 4.88264 15.9762 4.62919 15.9762 4.365C15.9762 4.10081 15.8717 3.84736 15.6854 3.66C15.5924 3.56627 15.4818 3.49188 15.36 3.44111C15.2381 3.39034 15.1074 3.3642 14.9754 3.3642C14.8434 3.3642 14.7127 3.39034 14.5908 3.44111C14.469 3.49188 14.3584 3.56627 14.2654 3.66L13.6154 4.31V2C13.6154 1.73478 13.5101 1.48043 13.3225 1.29289C13.135 1.10536 12.8806 1 12.6154 1C12.3502 1 12.0958 1.10536 11.9083 1.29289C11.7208 1.48043 11.6154 1.73478 11.6154 2V4.47L10.8054 3.66C10.7124 3.56627 10.6018 3.49188 10.48 3.44111C10.3581 3.39034 10.2274 3.3642 10.0954 3.3642C9.9634 3.3642 9.83269 3.39034 9.71083 3.44111C9.58897 3.49188 9.47837 3.56627 9.38541 3.66C9.19916 3.84736 9.09462 4.10081 9.09462 4.365C9.09462 4.62919 9.19916 4.88264 9.38541 5.07L11.6154 7.3V10.3L9.04541 8.78L8.22541 5.78C8.19496 5.64929 8.13851 5.52605 8.05942 5.41762C7.98034 5.30919 7.88023 5.21779 7.76508 5.14886C7.64992 5.07994 7.52207 5.03489 7.38914 5.01642C7.25621 4.99795 7.12092 5.00642 6.99134 5.04133C6.86175 5.07625 6.74052 5.13689 6.63486 5.21965C6.52921 5.3024 6.44129 5.40558 6.37635 5.52303C6.31141 5.64048 6.27078 5.7698 6.25687 5.90328C6.24297 6.03677 6.25607 6.17169 6.29541 6.3L6.61541 7.37L4.45541 6.13C4.34116 6.06434 4.2151 6.02182 4.08441 6.00488C3.95373 5.98794 3.821 5.99691 3.69378 6.03126C3.56656 6.06562 3.44736 6.1247 3.34298 6.20513C3.23859 6.28555 3.15107 6.38575 3.08541 6.5C3.01975 6.61425 2.97723 6.74031 2.96029 6.871C2.94335 7.00168 2.95232 7.13441 2.98667 7.26163C3.05606 7.51855 3.22467 7.73739 3.45541 7.87L5.45541 9L4.61541 9.26C4.35019 9.29448 4.10954 9.4329 3.94638 9.64482C3.78322 9.85673 3.71093 10.1248 3.74541 10.39C3.77989 10.6552 3.91831 10.8959 4.13023 11.059C4.34214 11.2222 4.61019 11.2945 4.87541 11.26H5.13541L7.95541 10.5L10.6154 12L7.90541 13.57L5.08541 12.81C4.95309 12.7609 4.81187 12.7403 4.67104 12.7497C4.5302 12.759 4.39294 12.7981 4.26828 12.8643C4.14362 12.9305 4.03439 13.0223 3.94777 13.1338C3.86115 13.2452 3.7991 13.3737 3.76571 13.5108C3.73231 13.648 3.72832 13.7906 3.75401 13.9294C3.77969 14.0682 3.83447 14.2 3.91473 14.3161C3.99499 14.4322 4.09892 14.53 4.21969 14.6031C4.34045 14.6761 4.47532 14.7228 4.61541 14.74L5.50541 14.98L3.50541 16.13C3.27467 16.2626 3.10606 16.4814 3.03667 16.7384C2.96728 16.9953 3.0028 17.2693 3.13541 17.5C3.26802 17.7307 3.48686 17.8993 3.74378 17.9687C4.0007 18.0381 4.27467 18.0026 4.50541 17.87L6.61541 16.63L6.31541 17.74C6.27577 17.868 6.26226 18.0027 6.27568 18.136C6.28911 18.2693 6.32919 18.3986 6.39356 18.5161C6.45792 18.6337 6.54525 18.7371 6.65036 18.8202C6.75546 18.9033 6.87621 18.9645 7.00541 19C7.0918 19.0098 7.17902 19.0098 7.26541 19C7.49117 19.0077 7.7129 18.9388 7.89449 18.8044C8.07607 18.6701 8.20681 18.4782 8.26541 18.26L9.08541 15.26L11.6154 13.73V16.86L9.54541 18.93C9.35916 19.1174 9.25462 19.3708 9.25462 19.635C9.25462 19.8992 9.35916 20.1526 9.54541 20.34C9.63802 20.4345 9.74847 20.5097 9.87034 20.5612C9.99222 20.6127 10.1231 20.6395 10.2554 20.64C10.3877 20.6395 10.5186 20.6127 10.6405 20.5612C10.7624 20.5097 10.8728 20.4345 10.9654 20.34L11.6154 19.69V22C11.6154 22.2652 11.7208 22.5196 11.9083 22.7071C12.0958 22.8946 12.3502 23 12.6154 23C12.8806 23 13.135 22.8946 13.3225 22.7071C13.5101 22.5196 13.6154 22.2652 13.6154 22V19.53L14.4254 20.34C14.5184 20.4337 14.629 20.5081 14.7508 20.5589C14.8727 20.6097 15.0034 20.6358 15.1354 20.6358C15.2674 20.6358 15.3981 20.6097 15.52 20.5589C15.6418 20.5081 15.7524 20.4337 15.8454 20.34C16.0317 20.1526 16.1362 19.8992 16.1362 19.635C16.1362 19.3708 16.0317 19.1174 15.8454 18.93L13.6154 16.7V13.7L16.1854 15.19L17.0054 18.19C17.064 18.4082 17.1947 18.6001 17.3763 18.7344C17.5579 18.8688 17.7796 18.9377 18.0054 18.93C18.0918 18.9398 18.179 18.9398 18.2654 18.93C18.3931 18.8964 18.5128 18.8378 18.6178 18.7576C18.7227 18.6774 18.8107 18.5773 18.8767 18.4629C18.9427 18.3486 18.9854 18.2223 19.0023 18.0913C19.0193 17.9604 19.0101 17.8274 18.9754 17.7L18.6154 16.63L20.7554 17.87C20.8697 17.9357 20.9957 17.9782 21.1264 17.9951C21.2571 18.0121 21.3898 18.0031 21.517 17.9687C21.6443 17.9344 21.7635 17.8753 21.8678 17.7949C21.9722 17.7144 22.0597 17.6143 22.1254 17.5C22.1911 17.3857 22.2336 17.2597 22.2505 17.129C22.2675 16.9983 22.2585 16.8656 22.2241 16.7384C22.1898 16.6112 22.1307 16.492 22.0503 16.3876C21.9699 16.2832 21.8697 16.1957 21.7554 16.13H21.7754Z" fill="black"/>
</svg>
