<svg width="25" height="24" viewBox="0 0 25 24" fill="none" xmlns="http://www.w3.org/2000/svg">
<path d="M9.66697 4.58998C9.89927 4.3563 10.1857 4.18363 10.5008 4.08732C10.816 3.99102 11.15 3.97407 11.4732 4.03797C11.7965 4.10188 12.0989 4.24466 12.3537 4.45363C12.6085 4.66259 12.8077 4.93127 12.9336 5.23578C13.0595 5.54028 13.1082 5.87117 13.0754 6.19905C13.0426 6.52692 12.9293 6.84161 12.7456 7.11514C12.5619 7.38868 12.3134 7.61258 12.0223 7.76695C11.7312 7.92132 11.4065 8.00137 11.077 7.99998H2.07697M12.667 19.41C12.8993 19.6437 13.1857 19.8163 13.5008 19.9126C13.816 20.0089 14.15 20.0259 14.4732 19.962C14.7965 19.8981 15.0989 19.7553 15.3537 19.5463C15.6085 19.3374 15.8077 19.0687 15.9336 18.7642C16.0595 18.4597 16.1082 18.1288 16.0754 17.8009C16.0426 17.473 15.9293 17.1584 15.7456 16.8848C15.5619 16.6113 15.3134 16.3874 15.0223 16.233C14.7312 16.0786 14.4065 15.9986 14.077 16H2.07697M17.807 7.72998C18.0978 7.43987 18.4557 7.2259 18.8489 7.10699C19.2421 6.98809 19.6586 6.96792 20.0615 7.04827C20.4643 7.12861 20.8412 7.307 21.1587 7.56765C21.4762 7.8283 21.7246 8.16318 21.8819 8.54267C22.0392 8.92217 22.1006 9.33458 22.0606 9.74343C22.0206 10.1523 21.8805 10.545 21.6526 10.8868C21.4247 11.2286 21.1161 11.509 20.7541 11.7031C20.3921 11.8973 19.9878 11.9992 19.577 12H2.07697" stroke="black" stroke-width="2" stroke-linecap="round" stroke-linejoin="round"/>
</svg>
