<svg width="84" height="84" viewBox="0 0 84 84" fill="none" xmlns="http://www.w3.org/2000/svg">
<g clip-path="url(#clip0_1_731)">
<path d="M0 42C0 18.804 18.804 0 42 0V0C65.196 0 84 18.804 84 42V42C84 65.196 65.196 84 42 84V84C18.804 84 0 65.196 0 42V42Z" fill="url(#paint0_linear_1_731)"/>
<path opacity="0.6" d="M64.3785 19.2179H59.5185C58.0213 19.2179 56.8076 17.9595 56.8076 16.4071C56.8076 14.8547 58.0213 13.5963 59.5185 13.5963C59.9703 13.5963 60.3963 13.7109 60.7709 13.9136C61.2925 12.3448 62.7288 11.2179 64.419 11.2179C66.5496 11.2179 68.2768 13.0088 68.2768 15.2179C68.2768 15.2632 68.2761 15.3083 68.2746 15.3532C68.8966 15.6996 69.3194 16.3805 69.3194 17.1638C69.3194 18.2983 68.4325 19.2179 67.3384 19.2179H64.419C64.4129 19.2179 64.3785 19.2179 64.3785 19.2179H64.419H64.3785Z" fill="url(#paint1_linear_1_731)"/>
<path fill-rule="evenodd" clip-rule="evenodd" d="M39.3623 41L100.96 74.919V103.97H-17L-16.4425 76.3204L39.3623 41Z" fill="#2B1685"/>
<path fill-rule="evenodd" clip-rule="evenodd" d="M38.5146 43.712L41.9801 44.56L41.7127 42.3099L60.7908 52.8541H57.5545L56.1868 53.8614L48.4928 49.5172L54.4066 55.1723L52.8628 56.3093L53.814 58.8949L46.9486 61.9961L39.9736 55.0853L44.4611 55.9033L41.6196 51.4993L48.4928 54.6949L42.6774 49.5172L45.2955 50.3998L38.5146 43.712Z" fill="url(#paint2_linear_1_731)"/>
<path fill-rule="evenodd" clip-rule="evenodd" d="M61.5775 55.0485L65.8703 53.438L84.3663 66.197L81.4673 69.2157L78.2722 68.1335L80.2867 70.4507L75.3046 75.6455L68.0944 72.485L72.2069 79.8868L59.2337 70.7034L58.8885 64.8671L55.6357 60.4272L58.672 61.2062L57.6339 56.986L62.2406 56.497L61.5775 55.0485Z" fill="url(#paint3_linear_1_731)"/>
<path fill-rule="evenodd" clip-rule="evenodd" d="M34.2625 61.6532L40.7869 65.125V62.7868L54.2596 74.6324L52.1274 69.8933L59.9986 72.4851L67.7143 81.7715L61.7401 82.6205L49.6527 76.8715L55.7529 83.4713L48.5514 84.4947L34.2625 71.6635V67.5843L38.5146 69.8933L34.2625 61.6532Z" fill="url(#paint4_linear_1_731)"/>
<path fill-rule="evenodd" clip-rule="evenodd" d="M12.9407 62.7663L12.345 59.616L19.0719 61.9961L25.7989 67.4762L19.0826 66.7716L12.9407 62.7663Z" fill="url(#paint5_linear_1_731)"/>
<path fill-rule="evenodd" clip-rule="evenodd" d="M16.1501 71.515L13.9851 67.9592L19.4323 69.2376L18.5563 70.6795L16.1501 71.515Z" fill="url(#paint6_linear_1_731)"/>
<path fill-rule="evenodd" clip-rule="evenodd" d="M18.741 57.156H20.8748L19.8897 55.0853L22.7734 56.3468L25.7989 58.8215L21.9085 59.9718L18.741 57.156Z" fill="url(#paint7_linear_1_731)"/>
<path opacity="0.5" d="M14.833 30H21.5542C23.6247 30 25.3032 28.2696 25.3032 26.1351C25.3032 24.0006 23.6247 22.2703 21.5542 22.2703C20.9294 22.2703 20.3402 22.4278 19.8222 22.7065C19.1008 20.5496 17.1145 19 14.7771 19C11.8305 19 9.44189 21.4624 9.44189 24.5C9.44189 24.5623 9.4429 24.6243 9.44489 24.686C8.58476 25.1624 7.99995 26.0986 7.99995 27.1757C7.99995 28.7355 9.22655 30 10.7396 30H14.7771C14.7855 30 14.833 30 14.833 30H14.7771H14.833Z" fill="url(#paint8_linear_1_731)"/>
<circle cx="70" cy="32" r="1" fill="#E0E0F9"/>
<circle opacity="0.8" cx="38" cy="61" r="1" fill="#E0E0F9"/>
<circle opacity="0.9" cx="54" cy="17" r="1" fill="#E0E0F9"/>
<circle opacity="0.7" cx="58" cy="44" r="1" fill="#E0E0F9"/>
<circle opacity="0.7" cx="53" cy="68" r="1" fill="#E0E0F9"/>
<circle cx="40.5" cy="46.5" r="0.5" fill="#E0E0F9"/>
<circle cx="32.5" cy="48.5" r="0.5" fill="#E0E0F9"/>
<circle cx="22.5" cy="48.5" r="0.5" fill="#E0E0F9"/>
<circle cx="15.5" cy="32.5" r="0.5" fill="#E0E0F9"/>
<circle cx="26.5" cy="25.5" r="0.5" fill="#E0E0F9"/>
<circle r="0.5" transform="matrix(-1 0 0 1 67.5 62.5)" fill="#E0E0F9"/>
<circle r="0.5" transform="matrix(-1 0 0 1 70.5 55.5)" fill="#E0E0F9"/>
<circle r="0.5" transform="matrix(-1 0 0 1 46.5 61.5)" fill="#E0E0F9"/>
<circle r="0.5" transform="matrix(-1 0 0 1 49.5 50.5)" fill="#E0E0F9"/>
<circle r="0.5" transform="matrix(-1 0 0 1 42.5 38.5)" fill="#E0E0F9"/>
<circle r="0.5" transform="matrix(-1 0 0 1 51.5 41.5)" fill="#E0E0F9"/>
<circle r="0.5" transform="matrix(-1 0 0 1 59.5 24.5)" fill="#E0E0F9"/>
<circle cx="32.5118" cy="67.775" r="0.5" transform="rotate(-50 32.5118 67.775)" fill="#E0E0F9"/>
<circle cx="25.5147" cy="64.4885" r="0.5" transform="rotate(-50 25.5147 64.4885)" fill="#E0E0F9"/>
<circle cx="17.7044" cy="64.4621" r="0.5" transform="rotate(-50 17.7044 64.4621)" fill="#E0E0F9"/>
<circle r="0.5" transform="matrix(-1 0 0 1 76.5 59.5)" fill="#E0E0F9"/>
<circle r="0.5" transform="matrix(-1 0 0 1 74.5 54.5)" fill="#E0E0F9"/>
<circle r="0.5" transform="matrix(-1 0 0 1 67.5 42.5)" fill="#E0E0F9"/>
<circle r="0.5" transform="matrix(-1 0 0 1 60.5 50.5)" fill="#E0E0F9"/>
<circle r="0.5" transform="matrix(-1 0 0 1 58.5 33.5)" fill="#E0E0F9"/>
<circle r="0.5" transform="matrix(-1 0 0 1 10.5 60.5)" fill="#E0E0F9"/>
<circle r="0.5" transform="matrix(-1 0 0 1 13.5 49.5)" fill="#E0E0F9"/>
<circle r="0.5" transform="matrix(-1 0 0 1 8.5 43.5)" fill="#E0E0F9"/>
<circle r="0.5" transform="matrix(-1 0 0 1 2.5 35.5)" fill="#E0E0F9"/>
<circle r="0.5" transform="matrix(-1 0 0 1 35.5 56.5)" fill="#E0E0F9"/>
<circle r="0.5" transform="matrix(-1 0 0 1 26.5 39.5)" fill="#E0E0F9"/>
<circle r="0.5" transform="matrix(0 1 1 0 50.5 25.5)" fill="#E0E0F9"/>
<circle r="0.5" transform="matrix(0 1 1 0 33.5 34.5)" fill="#E0E0F9"/>
<circle cx="10.5" cy="17.5" r="0.5" transform="rotate(90 10.5 17.5)" fill="#E0E0F9"/>
<circle cx="26.5" cy="25.5" r="0.5" transform="rotate(90 26.5 25.5)" fill="#E0E0F9"/>
<circle r="0.5" transform="matrix(0 1 1 0 25.5 7.5)" fill="#E0E0F9"/>
<circle r="0.5" transform="matrix(0 1 1 0 54.5 9.5)" fill="#E0E0F9"/>
<circle r="0.5" transform="matrix(0 1 1 0 40.5 4.5)" fill="#E0E0F9"/>
<circle r="0.5" transform="matrix(0 1 1 0 38.5 13.5)" fill="#E0E0F9"/>
<circle r="0.5" transform="matrix(0 1 1 0 27.5 17.5)" fill="#E0E0F9"/>
<circle r="0.5" transform="matrix(-1 0 0 1 74.5 35.5)" fill="#E0E0F9"/>
<circle r="0.5" transform="matrix(-1 0 0 1 67.5 23.5)" fill="#E0E0F9"/>
</g>
<defs>
<linearGradient id="paint0_linear_1_731" x1="-6.73712" y1="0" x2="-6.73712" y2="97.4742" gradientUnits="userSpaceOnUse">
<stop stop-color="#2819CE"/>
<stop offset="1" stop-color="#A267FA"/>
</linearGradient>
<linearGradient id="paint1_linear_1_731" x1="56.8076" y1="11.2179" x2="56.8076" y2="19.2179" gradientUnits="userSpaceOnUse">
<stop stop-color="white"/>
<stop offset="1" stop-color="white" stop-opacity="0.01"/>
</linearGradient>
<linearGradient id="paint2_linear_1_731" x1="29.8206" y1="53.2834" x2="47.0338" y2="76.5916" gradientUnits="userSpaceOnUse">
<stop stop-color="#AAA4FF"/>
<stop offset="1" stop-color="#19D2EA"/>
</linearGradient>
<linearGradient id="paint3_linear_1_731" x1="44.4227" y1="68.1811" x2="67.8106" y2="98.5828" gradientUnits="userSpaceOnUse">
<stop stop-color="#AAA4FF"/>
<stop offset="1" stop-color="#19D2EA"/>
</linearGradient>
<linearGradient id="paint4_linear_1_731" x1="21.2068" y1="74.3855" x2="39.197" y2="105.914" gradientUnits="userSpaceOnUse">
<stop stop-color="#AAA4FF"/>
<stop offset="1" stop-color="#19D2EA"/>
</linearGradient>
<linearGradient id="paint5_linear_1_731" x1="7.09412" y1="63.9974" x2="12.7642" y2="75.6111" gradientUnits="userSpaceOnUse">
<stop stop-color="#AAA4FF"/>
<stop offset="1" stop-color="#19D2EA"/>
</linearGradient>
<linearGradient id="paint6_linear_1_731" x1="11.8591" y1="69.9413" x2="14.5943" y2="74.9553" gradientUnits="userSpaceOnUse">
<stop stop-color="#AAA4FF"/>
<stop offset="1" stop-color="#19D2EA"/>
</linearGradient>
<linearGradient id="paint7_linear_1_731" x1="15.9864" y1="57.8092" x2="19.862" y2="64.5078" gradientUnits="userSpaceOnUse">
<stop stop-color="#AAA4FF"/>
<stop offset="1" stop-color="#19D2EA"/>
</linearGradient>
<linearGradient id="paint8_linear_1_731" x1="25.3032" y1="19" x2="25.3032" y2="30" gradientUnits="userSpaceOnUse">
<stop stop-color="white"/>
<stop offset="1" stop-color="white" stop-opacity="0.01"/>
</linearGradient>
<clipPath id="clip0_1_731">
<path d="M0 42C0 18.804 18.804 0 42 0V0C65.196 0 84 18.804 84 42V42C84 65.196 65.196 84 42 84V84C18.804 84 0 65.196 0 42V42Z" fill="white"/>
</clipPath>
</defs>
</svg>
