<svg width="84" height="84" viewBox="0 0 84 84" fill="none" xmlns="http://www.w3.org/2000/svg">
<g clip-path="url(#clip0_1_1259)">
<path d="M0 42C0 18.804 18.804 0 42 0V0C65.196 0 84 18.804 84 42V42C84 65.196 65.196 84 42 84V84C18.804 84 0 65.196 0 42V42Z" fill="url(#paint0_linear_1_1259)"/>
<path fill-rule="evenodd" clip-rule="evenodd" d="M-19.3845 84.9051C-19.3845 84.9051 -18.4771 56.3872 2.09342 51.9281C20.0787 49.2763 33.9449 69.8586 50.0272 69.8586C68.7704 69.8586 77.6036 57.9137 95.8014 57.9137C109.074 57.9137 122.034 68.2987 140.108 64.6989C146.121 63.5015 155.077 61.4409 155.077 61.4409L154.779 100.734L-19.3845 103.385V84.9051Z" fill="url(#paint1_linear_1_1259)" fill-opacity="0.7"/>
<path d="M34.9582 56.0195C45.9998 44.2103 56.5473 44.6121 57.7531 44.8312C55.9591 42.7237 53.3654 41.3566 50.6393 40.8783C47.9133 40.3999 45.0688 40.7822 42.4883 41.7827C38.772 43.2235 35.4766 46.1088 34.2475 49.9005C33.5871 51.9377 33.6082 54.3569 34.9582 56.0195Z" fill="#236002"/>
<path d="M37.4764 50.3564C45.42 43.6884 49.8847 42.5288 57.7531 44.8312C55.9592 42.7237 53.3654 41.3566 50.6394 40.8783C47.9134 40.3999 45.0689 40.7822 42.4884 41.7827C38.7721 43.2235 35.4766 46.1088 34.2476 49.9005C33.5872 51.9377 35.6339 51.9031 37.4764 50.3564Z" fill="#358013"/>
<path d="M49.1936 46.7605C48.7671 48.0175 48.5313 49.3748 48.5623 50.7023C48.8152 61.549 50.0005 72.7378 53.5375 83.6385H61.2492C56.7265 72.6218 54.5812 59.2278 53.4119 44.7576C53.4484 44.0629 52.4839 43.7883 51.8177 43.9798C50.546 44.3453 49.6202 45.5036 49.1936 46.7605Z" fill="#563913"/>
<mask id="mask0_1_1259" style="mask-type:alpha" maskUnits="userSpaceOnUse" x="48" y="43" width="14" height="41">
<path d="M49.1936 46.7605C48.7671 48.0175 48.5313 49.3748 48.5623 50.7023C48.8152 61.549 50.0005 72.7378 53.5375 83.6385H61.2492C56.7265 72.6218 54.5812 59.2278 53.4119 44.7576C53.4484 44.0629 52.4839 43.7883 51.8177 43.9798C50.546 44.3453 49.6202 45.5036 49.1936 46.7605Z" fill="#868162"/>
</mask>
<g mask="url(#mask0_1_1259)">
<path d="M52.3778 54.3573C52.3778 53.8449 52.7932 53.4296 53.3056 53.4296H57.0164C57.5288 53.4296 57.9442 53.8449 57.9442 54.3573V54.3573C57.9442 54.8697 57.5288 55.285 57.0165 55.285H53.3056C52.7932 55.285 52.3778 54.8697 52.3778 54.3573V54.3573Z" fill="black"/>
<path d="M45.304 60.6194C45.304 60.107 45.7193 59.6917 46.2317 59.6917H49.9426C50.4549 59.6917 50.8703 60.107 50.8703 60.6194V60.6194C50.8703 61.1318 50.4549 61.5471 49.9426 61.5471H46.2317C45.7193 61.5471 45.304 61.1318 45.304 60.6194V60.6194Z" fill="black"/>
<path d="M55.161 69.5487C55.161 69.0364 55.5764 68.621 56.0887 68.621H59.7996C60.312 68.621 60.7273 69.0364 60.7273 69.5487V69.5487C60.7273 70.0611 60.312 70.4765 59.7996 70.4765H56.0887C55.5764 70.4765 55.161 70.0611 55.161 69.5487V69.5487Z" fill="black"/>
<path d="M48.0871 75.8109C48.0871 75.2985 48.5025 74.8831 49.0148 74.8831H52.7257C53.2381 74.8831 53.6535 75.2985 53.6535 75.8109V75.8109C53.6535 76.3232 53.2381 76.7386 52.7257 76.7386H49.0148C48.5025 76.7386 48.0871 76.3232 48.0871 75.8109V75.8109Z" fill="black"/>
</g>
<path opacity="0.4" d="M49.1936 46.7604C48.7671 48.0174 48.5313 49.3747 48.5623 50.7022C48.8152 61.5489 50.0005 72.7377 53.5375 83.6384H57.9442C57.9442 83.6384 50.5224 65.5478 50.0995 45.1379C50.0867 44.5189 49.3924 46.1748 49.1936 46.7604Z" fill="#92672D"/>
<path d="M52.7677 44.5247C52.6802 44.8491 52.4864 45.2332 52.1506 45.2206C51.8649 44.8563 51.5734 44.5005 51.2762 44.1531C48.7109 41.1548 45.7238 38.789 42.4049 37.0223C39.2404 35.3378 35.7742 34.198 32.084 33.574C31.7148 33.5115 31.3433 33.4542 30.9697 33.4021C30.5331 33.3916 30.6728 32.6916 30.972 32.3733C33.3635 29.8295 37.0775 28.7235 40.5396 29.1757C44.0017 29.6279 47.1856 31.5265 49.5369 34.1076C52.0916 36.9122 53.7556 40.8619 52.7677 44.5247Z" fill="#358013"/>
<path d="M52.1506 45.2206C52.4864 45.2332 52.6802 44.8491 52.7677 44.5247C53.7556 40.8619 52.0916 36.9122 49.5369 34.1076C47.1856 31.5265 44.0017 29.6279 40.5396 29.1757C37.0775 28.7235 33.3635 29.8295 30.972 32.3733C30.6923 32.6709 30.5519 33.3022 30.8917 33.3916C32.8195 32.3523 35.0217 31.7441 37.3604 31.7441C44.3509 31.7441 49.7287 37.1782 50.534 43.316C50.7851 43.5893 51.0326 43.8684 51.2762 44.1531C51.5734 44.5005 51.8649 44.8563 52.1506 45.2206Z" fill="#236002"/>
<path d="M52.1598 40.8744C52.091 42.2081 52.2623 43.6224 53.0533 44.6985C58.0602 35.107 69.3668 34.7011 69.3668 34.7011C73.0777 34.991 68.1492 29.3667 64.3803 29.1928C63.1622 29.0485 61.9357 29.1922 60.7713 29.5777C55.995 31.1588 52.4189 35.8499 52.1598 40.8744Z" fill="#358013"/>
<path d="M52.1598 40.8745C52.091 42.2082 52.2623 43.6225 53.0533 44.6986C53.732 43.7191 54.1248 42.7699 54.9292 41.8911C55.2771 37.1945 60.5214 28.9414 68.845 31.4542C68.9173 31.4795 68.9892 31.5049 69.0605 31.5303C67.8873 30.2186 66.122 29.3268 64.3931 29.1221C63.175 28.9778 61.9357 29.1923 60.7713 29.5778C55.995 31.1589 52.4189 35.85 52.1598 40.8745Z" fill="#236002"/>
<path d="M56.7266 47.0514C55.5105 46.1393 53.631 45.374 52.1951 44.8748C51.5745 44.6591 51.3095 43.8535 51.5231 43.2322C51.7367 42.6109 52.3044 42.1716 52.9066 41.9091C53.8436 41.5007 54.8971 41.4397 55.9168 41.5103C59.8377 41.782 63.6524 43.9802 65.6474 47.3665C67.5114 50.5304 68.9686 60.9533 66.3517 57.3724C65.2501 55.8648 62.4089 51.3132 56.7266 47.0514Z" fill="#236002"/>
<path d="M51.6241 43.3986C56.9585 43.9204 60.6115 47.5733 63.1627 50.2985C65.7139 53.0237 65.9778 46.8451 62.7568 44.2683C57.2484 39.8617 51.2762 41.6011 51.6241 43.3986Z" fill="#358013"/>
<path d="M52.6098 47.5153C52.6098 49.885 51.0366 50.7623 48.6669 50.7623C46.2972 50.7623 44.7241 49.885 44.7241 47.5153C44.7241 45.1456 46.6375 42.6448 48.6669 42.6448C50.6963 42.6448 52.6098 45.1456 52.6098 47.5153Z" fill="#264510"/>
<path d="M55.5089 44.7322C55.5089 47.1019 53.9358 47.9793 51.5661 47.9793C49.1964 47.9793 47.6233 47.1019 47.6233 44.7322C47.6233 42.3625 49.5367 39.8617 51.5661 39.8617C53.5955 39.8617 55.5089 42.3625 55.5089 44.7322Z" fill="#469B1A"/>
<path d="M58.5241 48.7907C58.5241 51.1604 56.9509 52.0377 54.5812 52.0377C52.2116 52.0377 50.6384 51.1604 50.6384 48.7907C50.6384 46.421 52.5519 43.9202 54.5812 43.9202C56.6106 43.9202 58.5241 46.421 58.5241 48.7907Z" fill="#173208"/>
<path opacity="0.9" d="M15.0529 27.4616H25.0924C28.1852 27.4616 30.6924 24.9205 30.6924 21.7859C30.6924 18.6513 28.1852 16.1102 25.0924 16.1102C24.1591 16.1102 23.2791 16.3416 22.5052 16.7509C21.4277 13.5833 18.4607 11.3077 14.9693 11.3077C10.568 11.3077 7.00008 14.9239 7.00008 19.3847C7.00008 19.4761 7.00157 19.5672 7.00455 19.6578C5.71977 20.3574 4.84623 21.7323 4.84623 23.314C4.84623 25.6046 6.67842 27.4616 8.93854 27.4616H14.9693C14.9819 27.4616 15.0529 27.4616 15.0529 27.4616H14.9693H15.0529Z" fill="url(#paint2_linear_1_1259)"/>
<path opacity="0.9" d="M67.3316 19.3846H57.2922C54.1994 19.3846 48.4614 20.9999 48.4614 13.7089C48.4614 8.67389 54.1994 8.03321 57.2922 8.03321C58.2255 8.03321 59.1055 8.26461 59.8793 8.67389C60.9569 5.50628 63.9239 3.23071 67.4153 3.23071C71.8166 3.23071 75.3845 6.84687 75.3845 11.3076C75.3845 11.3991 75.383 11.4901 75.38 11.5808C76.6648 12.2804 77.5383 13.6553 77.5383 15.237C77.5383 17.5276 75.7062 19.3846 73.446 19.3846H67.4153C67.4027 19.3846 67.3316 19.3846 67.3316 19.3846Z" fill="url(#paint3_linear_1_1259)"/>
</g>
<defs>
<linearGradient id="paint0_linear_1_1259" x1="35.112" y1="-2.94" x2="45.276" y2="59.64" gradientUnits="userSpaceOnUse">
<stop stop-color="#C0CBCD"/>
<stop offset="1" stop-color="#83A69D"/>
</linearGradient>
<linearGradient id="paint1_linear_1_1259" x1="67.8462" y1="51.6923" x2="67.8462" y2="103.385" gradientUnits="userSpaceOnUse">
<stop stop-color="#607942"/>
<stop offset="1" stop-color="#2C5206"/>
</linearGradient>
<linearGradient id="paint2_linear_1_1259" x1="10.5001" y1="4.03851" x2="11.8879" y2="36.2103" gradientUnits="userSpaceOnUse">
<stop stop-color="#5C6A77"/>
<stop offset="1" stop-color="#818B97" stop-opacity="0"/>
</linearGradient>
<linearGradient id="paint3_linear_1_1259" x1="71.1778" y1="-4.10705" x2="69.9203" y2="28.3799" gradientUnits="userSpaceOnUse">
<stop stop-color="#5C6A77"/>
<stop offset="1" stop-color="#818B97" stop-opacity="0"/>
</linearGradient>
<clipPath id="clip0_1_1259">
<path d="M0 42C0 18.804 18.804 0 42 0V0C65.196 0 84 18.804 84 42V42C84 65.196 65.196 84 42 84V84C18.804 84 0 65.196 0 42V42Z" fill="white"/>
</clipPath>
</defs>
</svg>
