<svg width="84" height="84" viewBox="0 0 84 84" fill="none" xmlns="http://www.w3.org/2000/svg">
<g clip-path="url(#clip0_1_1109)">
<path d="M0 42C0 18.804 18.804 0 42 0V0C65.196 0 84 18.804 84 42V42C84 65.196 65.196 84 42 84V84C18.804 84 0 65.196 0 42V42Z" fill="url(#paint0_linear_1_1109)"/>
<circle cx="42" cy="41" r="11" fill="#FDF1DC"/>
<path d="M42 84C65.196 84 84 65.196 84 42H0C0 65.196 18.804 84 42 84Z" fill="url(#paint1_radial_1_1109)"/>
<path opacity="0.2" d="M63.0001 63C73.4046 63.7982 91.7367 60.5261 96.0924 56.8407C96.0924 56.8407 73.4881 60.6954 65.5208 60.5222C41.5001 60 13.0208 50.0222 13.0208 50.0222C11.0208 50.0222 36.2043 60.9442 63.0001 63Z" fill="url(#paint2_linear_1_1109)"/>
<path opacity="0.2" d="M59.3986 45.9087C40.1795 48.5565 19.176 44.731 21.9171 43.9402C21.9171 43.9402 43.3143 45.7132 59.3986 45.9087Z" fill="white"/>
<path opacity="0.2" d="M64.5103 49.1944C68.9999 52.5001 29.4999 51.0001 35.9999 50.5001C42.4999 50.0001 57.4999 51.1586 64.5103 49.1944Z" fill="url(#paint3_linear_1_1109)"/>
<path d="M84.1379 74.2508C77.5498 88.8281 58.6887 100.232 41.6522 100.232C29.6878 100.232 15.5785 94.6178 5.92925 86.221C3.80475 84.3722 1.42969 80.7378 -0.236877 77.4163C-1.84086 74.2196 -1.59728 65.6558 -0.41938 64.6592C3.93633 60.9738 12.5659 60.3122 22.9703 61.1105C49.7662 63.1663 61.4805 74.0401 84.1379 74.0401V74.2508Z" fill="url(#paint4_linear_1_1109)"/>
<path opacity="0.25" d="M82.716 77.0258C83.2383 76.1154 83.7136 75.1897 84.1379 74.2508V74.0401C72.5267 74.0401 63.7894 71.1844 54.4234 68.1232C45.5132 65.2109 36.0341 62.1127 22.9703 61.1105C12.5658 60.3122 3.93628 60.9738 -0.419434 64.6592V66.6592C3.93628 62.9738 12.5658 62.3122 22.9703 63.1105C36.0341 64.1127 45.5132 68.2109 54.4234 71.1232C63.4032 74.0582 71.8051 76.8043 82.716 77.0258Z" fill="url(#paint5_linear_1_1109)"/>
<path d="M75.3552 73.5499C71.5669 92.4737 52.4904 109.998 32.4636 114.622C18.3994 117.869 0.289926 111.098 -13.3317 103.846C-16.3308 102.249 -20.109 98.6216 -22.9695 95.1694C-25.7226 91.8469 -25.7707 84.9691 -24.6565 83.4779C-20.5365 77.9636 -12.5616 71.5888 -0.114359 69.7035C31.9424 64.848 38.9999 80.5001 75.298 73.3023L75.3552 73.5499Z" fill="url(#paint6_linear_1_1109)"/>
<path d="M3.5 66L12 58H0.5L3.5 66Z" fill="#220136" fill-opacity="0.5"/>
<path d="M99.5 33C96.6279 33 95 31.4999 91.5 31.4999C89.7132 31.4999 103 35.842 99.5 37.4999C96.2517 38.6736 80.5 37.6578 74 37.4999C67.5 37.342 62 41.9999 62 41.9999L91 42.5L90 43.5L113.5 44.5V28C113.5 28 109.5 25.2083 107 27.5C103.727 30.5 102.372 33 99.5 33Z" fill="#B56C7F"/>
<path d="M-14 33C-11.1279 33 -9.5 31.4999 -6 31.4999C-4.21316 31.4999 -1 35.9999 2.5 37.6578C5.74828 38.8315 9.46786 37.4999 11.5 37.4999C13.5 37.4999 23.5 41.9999 23.5 41.9999L-5.5 42.5L-4.5 43.5L-28 44.5V28C-28 28 -24 25.2083 -21.5 27.5C-18.2272 30.5 -16.8721 33 -14 33Z" fill="#B46A7E"/>
<path d="M3.5 53.7V50.5L0 53V59H6L6.5 55.5L3.5 53.7Z" fill="url(#paint7_linear_1_1109)"/>
<path d="M3.5 53.78V50.5L10.5 53L12 58L6 59L6.5 55.5L3.5 53.78Z" fill="url(#paint8_linear_1_1109)"/>
</g>
<defs>
<linearGradient id="paint0_linear_1_1109" x1="5" y1="-10" x2="7" y2="96" gradientUnits="userSpaceOnUse">
<stop offset="0.105158" stop-color="#FF2E53"/>
<stop offset="0.605776" stop-color="#FEDA42"/>
<stop offset="0.915348" stop-color="#FEA747"/>
</linearGradient>
<radialGradient id="paint1_radial_1_1109" cx="0" cy="0" r="1" gradientUnits="userSpaceOnUse" gradientTransform="translate(40.5 42) rotate(90) scale(64.5 406.556)">
<stop stop-color="#F7C66B"/>
<stop offset="0.117647" stop-color="#FF868C"/>
<stop offset="0.333253" stop-color="#661B94"/>
<stop offset="0.950221" stop-color="#661B94"/>
</radialGradient>
<linearGradient id="paint2_linear_1_1109" x1="54.5008" y1="63.1211" x2="54.5008" y2="50.0222" gradientUnits="userSpaceOnUse">
<stop stop-color="white"/>
<stop offset="1" stop-color="#FCEEBC" stop-opacity="0.9"/>
</linearGradient>
<linearGradient id="paint3_linear_1_1109" x1="50.624" y1="52.9888" x2="49.6169" y2="47.8078" gradientUnits="userSpaceOnUse">
<stop stop-color="white"/>
<stop offset="1" stop-color="#FCEEBC" stop-opacity="0.9"/>
</linearGradient>
<linearGradient id="paint4_linear_1_1109" x1="77.2334" y1="84.213" x2="-1.58251" y2="62.7982" gradientUnits="userSpaceOnUse">
<stop stop-color="#4C1F54"/>
<stop offset="1" stop-color="#754A6D"/>
</linearGradient>
<linearGradient id="paint5_linear_1_1109" x1="40" y1="59.9999" x2="38" y2="81.9999" gradientUnits="userSpaceOnUse">
<stop stop-color="white"/>
<stop offset="1" stop-color="#FFD987"/>
</linearGradient>
<linearGradient id="paint6_linear_1_1109" x1="69.5117" y1="84.7043" x2="-28.0583" y2="83.0858" gradientUnits="userSpaceOnUse">
<stop stop-color="#36023F"/>
<stop offset="1" stop-color="#6C3361"/>
</linearGradient>
<linearGradient id="paint7_linear_1_1109" x1="2.25" y1="50.5" x2="2" y2="64" gradientUnits="userSpaceOnUse">
<stop stop-color="#09000E"/>
<stop offset="1" stop-color="#380156"/>
</linearGradient>
<linearGradient id="paint8_linear_1_1109" x1="5" y1="55.5" x2="15" y2="48" gradientUnits="userSpaceOnUse">
<stop stop-color="#8B2D7C"/>
<stop offset="1" stop-color="#F5C471"/>
</linearGradient>
<clipPath id="clip0_1_1109">
<path d="M0 42C0 18.804 18.804 0 42 0V0C65.196 0 84 18.804 84 42V42C84 65.196 65.196 84 42 84V84C18.804 84 0 65.196 0 42V42Z" fill="white"/>
</clipPath>
</defs>
</svg>
