<svg width="84" height="84" viewBox="0 0 84 84" fill="none" xmlns="http://www.w3.org/2000/svg">
<g clip-path="url(#clip0_1_500)">
<path d="M0 42C0 18.804 18.804 0 42 0V0C65.196 0 84 18.804 84 42V42C84 65.196 65.196 84 42 84V84C18.804 84 0 65.196 0 42V42Z" fill="url(#paint0_linear_1_500)"/>
<rect x="46" y="48" width="11" height="4" fill="#34516D"/>
<path fill-rule="evenodd" clip-rule="evenodd" d="M59 48.5C59 45.2345 56.913 42.4564 54 41.4268C53.2181 41.1504 52.3766 41 51.5 41C47.3579 41 44 44.3579 44 48.5" fill="#D1E6FF"/>
<path fill-rule="evenodd" clip-rule="evenodd" d="M59 48.5C59 44.3579 55.6421 41 51.5 41V48.5" fill="#BED4EE"/>
<path fill-rule="evenodd" clip-rule="evenodd" d="M42 104.656H61.5943L58.2733 51.0405H44.5232L42 104.656Z" fill="#D1E6FF"/>
<path d="M58.2733 51.0405L61.5943 104.656L57 85.0002L54.6056 51.0405H58.2733Z" fill="#BED4EE"/>
<path opacity="0.597935" d="M35.9063 54.0992C35.0522 49.3817 36.5264 44.7137 39.5677 41.3438" stroke="white" stroke-width="1.88235" stroke-linecap="round" stroke-linejoin="round"/>
<path opacity="0.597935" d="M65.288 46.8718C63.8571 42.2962 60.3847 38.845 56.1272 37.2705" stroke="white" stroke-width="1.88235" stroke-linecap="round" stroke-linejoin="round"/>
<path fill-rule="evenodd" clip-rule="evenodd" d="M47.1629 48.4223L44.0155 35.6273C43.643 34.1129 44.5765 32.5816 46.1009 32.2066C47.6252 31.8316 49.1627 32.7551 49.5352 34.2695L52.6826 47.0646" fill="#EDF1F6"/>
<path d="M49.5351 34.2695C49.1626 32.7551 47.6252 31.8316 46.1008 32.2065L50 47.9999L52.6825 47.0645L49.5351 34.2695Z" fill="#E3EAF1"/>
<path fill-rule="evenodd" clip-rule="evenodd" d="M50.0488 56.0463L40.4691 65.1874C39.3351 66.2689 37.5366 66.2354 36.4523 65.1112V65.1112C35.367 63.9874 35.4071 62.199 36.5411 61.1175L46.1208 51.9764" fill="#F0F3F6"/>
<path d="M36.5411 61.1175C35.4071 62.199 35.367 63.9874 36.4523 65.1112L48.5 54L46.1208 51.9764L36.5411 61.1175Z" fill="#E3EAF1"/>
<path fill-rule="evenodd" clip-rule="evenodd" d="M53.6629 55.1572L66.39 58.8112C67.8963 59.2432 69.474 58.3792 69.9131 56.8803V56.8803C70.3531 55.3812 69.488 53.8155 67.9817 53.3835L55.2546 49.7296" fill="#F6FAFF"/>
<path d="M66.39 58.8112L53.6629 55.1573L54.5229 52.7436L69.9131 56.8803C69.474 58.3792 67.8963 59.2432 66.39 58.8112Z" fill="#E3EAF1"/>
<path fill-rule="evenodd" clip-rule="evenodd" d="M49.698 46.8297C52.238 46.2049 54.8011 47.7445 55.4218 50.2679C56.0425 52.7913 54.4861 55.3442 51.9462 55.969C49.4062 56.5938 46.8431 55.0542 46.2223 52.5308C45.6016 50.0075 47.158 47.4545 49.698 46.8297V46.8297Z" fill="#4E75B2"/>
</g>
<defs>
<linearGradient id="paint0_linear_1_500" x1="0" y1="84" x2="84" y2="84" gradientUnits="userSpaceOnUse">
<stop stop-color="#81B6F1"/>
<stop offset="1" stop-color="#9CC1FF"/>
</linearGradient>
<clipPath id="clip0_1_500">
<path d="M0 42C0 18.804 18.804 0 42 0V0C65.196 0 84 18.804 84 42V42C84 65.196 65.196 84 42 84V84C18.804 84 0 65.196 0 42V42Z" fill="white"/>
</clipPath>
</defs>
</svg>
