<svg width="84" height="84" viewBox="0 0 84 84" fill="none" xmlns="http://www.w3.org/2000/svg">
<g clip-path="url(#clip0_1_1310)">
<path d="M0 42C0 18.804 18.804 0 42 0V0C65.196 0 84 18.804 84 42V42C84 65.196 65.196 84 42 84V84C18.804 84 0 65.196 0 42V42Z" fill="url(#paint0_radial_1_1310)"/>
<path d="M72.7432 27.6088C77.2885 30.7983 78.5567 30.2016 80.3275 29.5741C84.1712 28.2121 87.0931 27.0802 90.4531 28.4405V44.8438L44.9107 43.404C39.6082 43.2114 45.6372 40.5978 46.9994 40.1846C48.3615 39.7713 49.5433 39.3942 50.4932 38.8949C51.621 38.3021 52.465 37.2975 53.451 36.5142C54.3565 35.795 55.2161 35.5003 56.304 35.1696C58.2972 34.5638 61.09 34.2899 62.4829 32.6122C65.5705 28.893 69.1576 25.0927 72.7432 27.6088Z" fill="url(#paint1_linear_1_1310)"/>
<path d="M-6 42H90.25V45.7188C90.25 72.2975 68.7037 93.8438 42.125 93.8438V93.8438C15.5463 93.8438 -6 72.2975 -6 45.7188V42Z" fill="url(#paint2_linear_1_1310)"/>
<path d="M104.344 57.1187C103.533 57.1187 65.9106 48.3345 64.874 47.9304C60.2126 46.1129 78.5671 43.8221 75.1594 42.8818C71.8661 41.9731 55.3437 42.978 55.3437 42.978C63.5012 43.113 71.1288 42.78 71.3314 43.1986C71.534 43.6172 52.4037 45.1381 55.8552 48.7217C61.8846 54.9818 77.485 61.3594 77.485 61.3594L104.344 61.3594L104.344 57.1187Z" fill="#002CD2"/>
<path d="M91.1093 61.0313C88.1015 65.1875 51.6796 97.7813 19.7968 81.5391C7.86148 75.4589 2.22579 63.496 -0.15423 57.75C-4.13198 48.1467 -0.154233 42 -0.154233 42L33.0312 42C33.0312 42 45.0507 41.4322 40.1405 44.1875C32.539 48.4532 91.1093 61.0313 91.1093 61.0313Z" fill="#0B09B8"/>
<path d="M63.5938 74.3125C48.1719 77.7032 9.12501 60.3125 29.5781 56.8125C50.0312 53.3126 79.0157 70.9219 63.5938 74.3125Z" fill="black" fill-opacity="0.3"/>
<path d="M5.85154 52.9375C3.9282 54.3496 1.58591 56.875 1.58591 56.875C1.58591 56.875 -0.870937 51.0795 -1.47659 47.1406C-2.08353 43.1933 -1.47659 37.0234 -1.47659 37.0234C-1.47659 37.0234 0.761158 38.3187 2.29685 38.9375C3.83255 39.5563 7.38346 39.2566 11.0469 39.8672C15.7819 40.6564 21.4232 43.14 23.0204 43.8727C23.303 44.0023 23.5105 44.2487 23.5974 44.5472L24.3359 47.0859C24.3359 47.0859 22.1305 47.745 21.2734 48.0703C15.3672 50.3125 8.96873 50.6489 5.85154 52.9375Z" fill="url(#paint3_linear_1_1310)"/>
<path d="M5.85161 52.9375C3.92827 54.3496 1.58599 56.875 1.58599 56.875C1.58599 56.875 -0.870866 51.0795 -1.47651 47.1406C-1.62005 46.2071 -1.6957 45.1493 -1.72754 44.0781L3.06255 46.4844L16.625 48.4531L22.0938 46.1562L23.461 44.0781L24.336 47.0859C24.336 47.0859 22.1305 47.745 21.2735 48.0703C15.3672 50.3125 8.9688 50.6489 5.85161 52.9375Z" fill="url(#paint4_linear_1_1310)"/>
<path d="M2.29688 38.9375C3.83257 39.5563 7.38349 39.2566 11.0469 39.8672C13.634 40.2984 16.4917 41.2354 18.8125 42.1163L11.9218 40.4688L8.69529 40.7422L13.5625 43.6953L1.42185 40.3047L-1.36721 38.7188L-1.47656 37.0234C-1.47656 37.0234 0.761181 38.3187 2.29688 38.9375Z" fill="url(#paint5_linear_1_1310)"/>
<path d="M38.1063 63.9614C38.7344 64.6303 39.1327 65.4849 39.4104 66.3595C39.8242 67.6621 39.9913 69.0425 39.9005 70.4062C39.8363 71.3717 39.6392 72.3407 39.1988 73.2022C38.8463 73.8917 38.2172 74.561 37.4439 74.5183C36.9955 74.4935 36.5941 74.2287 36.2696 73.9182C35.465 73.1484 35.0114 72.08 34.7245 71.004C34.2293 69.1469 34.1774 67.1484 34.753 65.3147C34.9195 64.7842 35.1451 64.2573 35.529 63.8551C35.9129 63.4529 36.4804 63.1928 37.0273 63.2926C37.4508 63.3699 37.8116 63.6476 38.1063 63.9614Z" fill="#322F74"/>
<path d="M38.7392 68.2656C38.9376 69.5123 38.9345 70.8379 38.3969 71.9801C38.241 72.3113 38.0061 72.6492 37.6495 72.7319C37.175 72.8419 36.7306 72.4519 36.4678 72.0418C36.0534 71.3951 35.8523 70.6343 35.7324 69.8756C35.5519 68.734 35.546 67.5409 35.9233 66.4484C36.0196 66.1695 36.1444 65.8928 36.3497 65.6809C36.555 65.469 36.8538 65.3302 37.145 65.3778C37.4415 65.4262 37.6769 65.6522 37.8583 65.8918C38.373 66.5716 38.6052 67.4235 38.7392 68.2656Z" fill="#0E0355"/>
<path d="M20.7554 58.5958C20.8348 60.1751 20.5395 62.508 19.655 62.4926C18.8968 62.4794 18.1443 60.1463 18.0328 58.5482C17.9231 56.9759 18.196 54.5995 19.0805 54.6149C19.965 54.6303 20.6707 56.9113 20.7554 58.5958Z" fill="#312E70"/>
<path d="M18.0598 55.7231C18.1169 55.4321 18.1905 55.1349 18.3652 54.8953C18.796 54.3045 19.6484 54.2686 20.3793 54.2889C20.5984 54.295 20.827 54.3036 21.0193 54.4087C21.1587 54.485 21.2675 54.6062 21.3674 54.7297C22.2951 55.8772 22.6664 57.378 22.8206 58.8455C22.9302 59.8886 22.8933 60.9801 22.424 61.918C22.349 62.0679 22.2572 62.2177 22.1153 62.3069C21.9878 62.387 21.8338 62.4097 21.6847 62.4306C21.2307 62.4943 20.7767 62.558 20.3227 62.6217C20.0762 62.6562 19.8618 62.7003 19.6207 62.6384C19.0883 62.5015 18.7825 61.9521 18.5809 61.4407C17.8696 59.636 17.6864 57.6267 18.0598 55.7231ZM18.0615 58.1944C18.1367 59.5154 18.351 60.8744 19.0633 61.9893C19.2118 62.2217 19.4126 62.4601 19.687 62.4883C19.9346 62.5137 20.1317 62.3407 20.2646 62.1303C20.3976 61.9198 20.4465 61.6685 20.4883 61.4232C20.863 59.226 20.8668 56.8239 19.628 54.971C19.5404 54.84 19.4402 54.7068 19.2954 54.6448C19.0984 54.5605 18.8608 54.6331 18.7005 54.7754C18.5402 54.9176 18.4441 55.1178 18.3677 55.318C18.0216 56.2259 18.0063 57.2244 18.0615 58.1944Z" fill="#0A023D"/>
<path d="M42.0613 66.3109C42.5753 67.4082 42.9571 68.5766 43.0827 69.7818C43.2082 70.9869 43.0698 72.2317 42.5834 73.3415C42.4191 73.7165 42.2086 74.0836 41.8909 74.3419C41.6813 74.5123 41.4335 74.6285 41.1834 74.7307C39.8528 75.2743 38.2744 75.4421 37.0132 74.7526C35.8759 74.1308 35.1804 72.9204 34.76 71.6943C34.2357 70.1655 34.0516 68.521 34.2249 66.914C34.3321 65.9196 34.5839 64.919 35.1381 64.0864C35.3281 63.8008 35.5573 63.5333 35.8506 63.3554C36.2117 63.1362 36.642 63.0681 37.0605 63.0111C37.4488 62.9581 37.8409 62.9108 38.2318 62.9392C39.1222 63.0039 39.9521 63.4648 40.5879 64.0915C41.2238 64.7182 41.6826 65.5025 42.0613 66.3109ZM39.4104 66.3595C39.1326 65.485 38.7344 64.6304 38.1063 63.9615C37.8116 63.6476 37.4508 63.3699 37.0273 63.2927C36.4804 63.1929 35.9128 63.453 35.529 63.8552C35.1451 64.2574 34.9194 64.7843 34.7529 65.3148C34.1774 67.1485 34.2293 69.147 34.7245 71.004C35.0113 72.08 35.465 73.1485 36.2696 73.9183C36.5941 74.2288 36.9955 74.4936 37.4439 74.5184C38.2171 74.5611 38.8463 73.8918 39.1987 73.2023C39.6392 72.3407 39.8362 71.3717 39.9005 70.4063C39.9913 69.0426 39.8241 67.6621 39.4104 66.3595Z" fill="#0A023D"/>
<path d="M17.9485 54.9826C17.9738 54.9634 18.2633 55.0951 18.2487 55.1828C18.2532 55.6333 18.2485 56.0839 18.2529 56.5344C18.2547 56.7192 18.1188 56.8041 17.9894 56.831C17.8066 56.8689 17.5961 56.8832 17.4505 56.7184C17.3213 56.5721 17.231 56.4052 17.3053 56.1949C17.32 56.1535 17.3077 56.1026 17.3077 56.056C17.3078 55.4152 17.3109 54.7744 17.3062 54.1336C17.3043 53.8859 17.3372 53.6205 17.2612 53.3945C17.1272 52.9959 17.1554 52.6236 17.2701 52.2358C17.3464 51.9775 17.5233 51.7988 17.7149 51.6368C18.0689 51.3374 18.5044 51.2046 18.9469 51.1148C19.3011 51.0429 19.6646 51.0171 20.0239 50.9697C20.4601 50.9121 20.8958 50.8509 21.3323 50.7959C21.6435 50.7567 21.955 50.715 22.2677 50.6957C22.3795 50.6888 22.4185 50.6341 22.4445 50.5549C22.7379 49.6627 23.0324 48.7707 23.318 47.8759C23.4561 47.4429 23.567 47.001 23.7072 46.5687C23.8094 46.2533 24.0413 46.0821 24.3744 46.0399C24.7822 45.9882 25.1879 45.9202 25.5957 45.8685C25.8528 45.8358 26.1127 45.8256 26.3703 45.7955C26.7244 45.7542 27.0772 45.7015 27.4311 45.658C27.577 45.6401 27.7248 45.638 27.8708 45.6212C28.2537 45.5771 28.6359 45.5262 29.019 45.4832C29.2709 45.4549 29.5239 45.4367 29.7763 45.4121C30.2464 45.3663 30.7164 45.3191 31.1865 45.2727C31.2038 45.271 31.2214 45.2729 31.2389 45.2725C31.7292 45.2609 32.2196 45.2504 32.7099 45.2372C33.0721 45.2275 33.4342 45.2133 33.7964 45.2029C34.2401 45.1901 34.6842 45.1647 35.1275 45.1738C35.5978 45.2172 38.3811 45.5401 38.8511 45.5872C39.192 45.6215 39.5327 45.6578 39.8737 45.6918C40.3495 45.7391 40.8255 45.7844 41.3012 45.832C41.6364 45.8656 41.9712 45.9034 42.3065 45.9362C42.7996 45.9844 43.2932 46.0286 43.7864 46.0769C44.1216 46.1096 44.4569 46.1433 44.7915 46.1821C45.1629 46.2252 45.5331 46.2792 45.9048 46.3193C46.1085 46.3412 46.3146 46.3407 46.5192 46.3568C47.1363 46.4053 47.6491 46.6734 48.0087 47.169C48.1978 47.4298 48.2656 47.7624 48.3138 48.0893C48.3725 48.4873 48.4541 48.8818 48.5198 49.2788C48.5715 49.5907 48.6095 49.9049 48.6618 50.2167C48.7266 50.6022 48.8036 50.9858 48.8685 51.3713C48.921 51.683 48.9728 51.9954 49.0077 52.3093L49.0091 52.322C49.0469 52.6622 49.0487 52.6781 49.3962 52.7511C50.0295 52.8841 50.6653 53.0053 51.2986 53.138C51.8229 53.2479 52.3444 53.3712 52.8687 53.4812C53.2933 53.5702 53.7207 53.6457 54.1459 53.7319C54.5537 53.8145 54.9601 53.9038 55.3674 53.9889C55.7965 54.0785 56.2259 54.1667 56.6552 54.2554C57.063 54.3397 57.4711 54.4229 57.8787 54.5084C58.2482 54.5859 58.6171 54.6668 58.9866 54.7446C59.3994 54.8315 59.8128 54.9153 60.2255 55.0027C60.6375 55.09 61.0488 55.1809 61.4608 55.2689C61.8784 55.358 62.2962 55.4466 62.7143 55.5334C63.1384 55.6214 63.5632 55.706 63.9873 55.7936C64.4003 55.879 64.8128 55.9666 65.2256 56.0526C65.5957 56.1297 65.966 56.2059 66.3362 56.2828C66.7599 56.3707 67.1838 56.4582 67.6073 56.5472C68.127 56.6564 71.6459 57.7694 72.166 57.8764L73.0665 67.2787C72.7634 67.4702 72.3918 67.9405 72.0341 68C71.518 68.0858 71.0043 68.1852 70.4893 68.2775C70.0932 68.3485 69.6962 68.4148 69.3006 68.4882C68.8793 68.5664 68.4601 68.6552 68.0384 68.7309C67.5547 68.8177 67.0681 68.889 66.5849 68.9786C66.1268 69.0635 65.6724 69.1682 65.2146 69.2549C64.808 69.3319 64.3982 69.3917 63.9913 69.4672C63.4567 69.5665 62.9242 69.677 62.3896 69.7763C61.9773 69.8528 61.5625 69.9157 61.1501 69.9916C60.8048 70.0551 60.4622 70.133 60.117 70.1964C59.7045 70.2721 59.2896 70.3348 58.8771 70.411C58.4183 70.4958 57.9616 70.5924 57.5029 70.6785C57.1507 70.7447 56.7965 70.801 56.4438 70.8647C56.0431 70.9371 55.6432 71.0132 55.2428 71.0871C54.8855 71.1531 54.5283 71.219 54.1707 71.2834C53.9048 71.3313 53.6379 71.3737 53.3725 71.4243C53.0222 71.491 52.6729 71.5634 52.3232 71.6332C51.9143 71.7148 51.5061 71.8005 51.0961 71.8766C50.7486 71.9411 50.3982 71.9902 50.0505 72.0538C49.6997 72.118 49.3531 72.2256 49 72.2517C48.6371 72.2786 48.3633 72.5402 48 72.5C47.8171 72.4798 47.6673 72.5837 47.5 72.5C46.58 72.1907 44.7752 71.8394 43.8581 71.5213C43.293 71.3253 42.732 71.1176 42.1674 70.9201C41.9126 70.831 41.7551 70.496 41.5096 70.3873C41.1602 70.2326 41.0935 70.0117 40.8992 69.6646C40.5676 69.072 40.5639 68.7037 40.3934 68.0534C40.2081 67.3468 40.4271 66.5482 40.0495 65.9118C39.7351 65.3818 39.0951 65.0869 38.6729 64.6417C38.2752 64.2224 38.4043 63.4699 37.897 63.2042C37.3651 62.9256 36.55 62.4805 35.9535 62.3692C35.7085 62.3235 34.3678 62.2926 34.2599 62.5177C34.0809 62.8912 33.7007 63.3419 33.7043 63.754C33.7074 64.1021 33.4763 64.2028 33.5124 64.5516C33.585 65.2525 33.7602 65.7491 33.9247 66.4278C33.9543 66.55 34.6885 67.6646 34.5139 67.6742C34.4334 67.6787 34.3407 67.6685 34.2712 67.6316C33.5831 67.2664 32.8996 66.8923 32.2128 66.5245C31.5455 66.1673 30.8752 65.8157 30.2074 65.4594C29.4773 65.0699 28.7491 64.6768 28.019 64.2873C27.3511 63.9311 26.6813 63.5788 26.0133 63.2227C25.3261 62.8564 24.6406 62.4866 23.9533 62.1202C23.419 61.8354 22.8828 61.5543 22.3481 61.2703C21.9469 61.0572 21.5583 60.8152 21.1421 60.6374C20.8637 60.5185 20.704 60.3444 20.6282 60.068C20.5981 59.9582 20.5704 59.8476 20.5362 59.7391C20.3348 59.1003 20.146 58.457 19.9254 57.8248C19.686 57.1387 19.4342 56.4556 19.1535 55.7855C18.9919 55.3998 18.6624 55.1509 18.2737 55.0014C18.1796 54.9652 17.9768 54.9353 17.9485 54.9826Z" fill="url(#paint6_linear_1_1310)"/>
<path d="M72.034 68.2484C72.3918 68.1889 72.7352 68.0818 73.0382 67.8904L73.0055 59.2109C73.0026 58.4239 72.3121 57.8166 71.5312 57.9142L48.1468 60.1126L47.9316 72.8007C48.2847 72.7746 49.6996 72.4349 50.0505 72.3707C50.3982 72.3071 50.7486 72.1895 51.0961 72.125C51.5061 72.0489 51.9143 71.9632 52.3232 71.8816C52.6729 71.8118 53.0221 71.7394 53.3724 71.6727C53.6378 71.6221 53.9048 71.5797 54.1707 71.5318C54.5282 71.4674 54.8855 71.4015 55.2428 71.3355C55.6431 71.2616 56.0431 71.1855 56.4438 71.1131C56.7965 71.0493 57.1506 70.9931 57.5029 70.9269C57.9616 70.8408 58.4182 70.7442 58.8771 70.6594C59.2895 70.5831 59.7044 70.5205 60.1169 70.4448C60.4622 70.3814 60.8048 70.3034 61.1501 70.24C61.5625 70.1641 61.9773 70.1012 62.3896 70.0247C62.9242 69.9254 63.4567 69.8148 63.9912 69.7156C64.3981 69.6401 64.808 69.5803 65.2146 69.5033C65.6724 69.4166 66.1268 69.3118 66.5849 69.227C67.0681 69.1374 67.5546 69.0661 68.0384 68.9793C68.46 68.9036 68.8793 68.8148 69.3005 68.7366C69.6962 68.6631 70.0932 68.5969 70.4893 68.5259C71.0042 68.4336 71.518 68.3341 72.034 68.2484Z" fill="url(#paint7_linear_1_1310)"/>
<path d="M72.034 68.2484C72.3918 68.1889 72.7352 68.0818 73.0382 67.8904L73.0055 59.2109C73.0026 58.4239 72.3121 57.8166 71.5312 57.9142L48.1468 60.1126L47.9316 72.8007C48.2847 72.7746 49.6996 72.4349 50.0505 72.3707C50.3982 72.3071 50.7486 72.1895 51.0961 72.125C51.5061 72.0489 51.9143 71.9632 52.3232 71.8816C52.6729 71.8118 53.0221 71.7394 53.3724 71.6727C53.6378 71.6221 53.9048 71.5797 54.1707 71.5318C54.5282 71.4674 54.8855 71.4015 55.2428 71.3355C55.6431 71.2616 56.0431 71.1855 56.4438 71.1131C56.7965 71.0493 57.1506 70.9931 57.5029 70.9269C57.9616 70.8408 58.4182 70.7442 58.8771 70.6594C59.2895 70.5831 59.7044 70.5205 60.1169 70.4448C60.4622 70.3814 60.8048 70.3034 61.1501 70.24C61.5625 70.1641 61.9773 70.1012 62.3896 70.0247C62.9242 69.9254 63.4567 69.8148 63.9912 69.7156C64.3981 69.6401 64.808 69.5803 65.2146 69.5033C65.6724 69.4166 66.1268 69.3118 66.5849 69.227C67.0681 69.1374 67.5546 69.0661 68.0384 68.9793C68.46 68.9036 68.8793 68.8148 69.3005 68.7366C69.6962 68.6631 70.0932 68.5969 70.4893 68.5259C71.0042 68.4336 71.518 68.3341 72.034 68.2484Z" fill="url(#paint8_linear_1_1310)" fill-opacity="0.31"/>
<path d="M17.94 54.9454C17.9651 54.9261 18.2547 55.0578 18.2401 55.1455C18.2446 55.596 18.24 56.0466 18.2444 56.4972C18.2462 56.6819 18.1102 56.7668 17.9808 56.7937C17.798 56.8317 17.5876 56.8459 17.4419 56.6811C17.3127 56.5349 17.2225 56.3679 17.2968 56.1577C17.3114 56.1163 17.2992 56.0653 17.2992 56.0187C17.2992 55.3779 17.3024 54.7371 17.2976 54.0964C17.2958 53.8486 17.3286 53.5833 17.2526 53.3573C17.1186 52.9587 17.1469 52.5864 17.2615 52.1986C17.3379 51.9402 17.5148 51.7616 17.7063 51.5995C18.0603 51.3001 18.4958 51.1674 18.9384 51.0775C19.2926 51.0056 19.6561 50.9799 20.0153 50.9325C20.4515 50.8749 20.8916 50.8597 21.3281 50.8047L30.625 54.3047L48.125 60.1016L47.6328 72.6797C47.6227 72.5552 47.046 72.5731 46.9332 72.5352C46.0131 72.2258 44.7666 71.8022 43.8496 71.4841C43.2845 71.2881 42.7235 71.0803 42.1588 70.8829C41.904 70.7938 41.7466 70.4587 41.5011 70.35C41.1516 70.1954 41.0849 69.9744 40.8907 69.6274C40.559 69.0347 40.5553 68.6664 40.3848 68.0161C40.1995 67.3095 40.4186 66.5109 40.041 65.8745C39.7266 65.3445 39.0865 65.0497 38.6643 64.6045C38.2667 64.1851 38.3958 63.4326 37.8884 63.1669C37.3566 62.8884 36.5415 62.4433 35.945 62.332C35.6999 62.2862 34.3592 62.2554 34.2514 62.4804C34.0723 62.8539 33.6921 63.3046 33.6958 63.7167C33.6988 64.0648 33.4677 64.1656 33.5039 64.5144C33.5764 65.2152 33.7516 65.7118 33.9161 66.3906C33.9457 66.5128 34.6799 67.6274 34.5053 67.637C34.4249 67.6414 34.3322 67.6312 34.2627 67.5944C33.5745 67.2292 32.8911 66.855 32.2043 66.4873C31.537 66.13 30.8667 65.7784 30.1989 65.4222C29.4688 65.0326 28.7406 64.6395 28.0104 64.2501C27.3426 63.8938 26.6727 63.5415 26.0048 63.1855C25.3175 62.8191 24.6321 62.4493 23.9448 62.083C23.4105 61.7982 22.8743 61.5171 22.3396 61.2331C21.9384 61.02 21.5497 60.7779 21.1336 60.6001C20.8552 60.4812 20.6954 60.3071 20.6197 60.0308C20.5896 59.9209 20.5619 59.8104 20.5277 59.7018C20.3262 59.063 20.1374 58.4198 19.9169 57.7876C19.6775 57.1014 19.4256 56.4183 19.145 55.7483C18.9834 55.3626 18.6539 55.1136 18.2651 54.9641C18.1711 54.9279 17.9682 54.898 17.94 54.9454Z" fill="#E80047"/>
<path d="M29.2185 56.0892C29.1523 56.31 29.1398 56.5475 29.1111 56.7784L28.5469 64.5816L34.3025 67.6415C34.3025 67.6415 34.5375 67.7871 34.6345 67.6415C34.9142 67.2221 34.1975 65.8783 34.1975 64.3578C34.1975 63.5522 34.6169 62.8373 34.6169 62.8373C36.3261 62.509 39.021 64.6374 40.6813 70.0377C40.9278 70.8395 47.969 72.8035 47.969 72.8035L48.1438 60.111L30.9294 54.44C30.738 54.3849 30.5215 54.3363 30.3323 54.3711C29.9666 54.4383 29.7674 54.7561 29.6082 55.047C29.4319 55.3695 29.3251 55.7339 29.2185 56.0892Z" fill="url(#paint9_linear_1_1310)"/>
<path d="M24.82 46.7291C24.3806 46.6339 24.1276 46.765 24.0063 47.2275L22.943 51.2836C22.9329 51.3226 22.9435 51.3899 22.9703 51.411C23.0466 51.4707 23.1317 51.5248 23.2215 51.5605C23.5967 51.7095 23.9775 51.8443 24.3513 51.9965C25.1287 52.313 25.9012 52.6413 26.6788 52.9573C27.4316 53.2631 28.1876 53.561 28.9438 53.8582C28.9934 53.8777 29.1933 53.9407 29.3829 53.9996C29.5759 54.0594 29.7738 53.9233 29.7879 53.7216L30.1174 49.0187C30.1354 48.763 30.0833 48.5073 29.9669 48.279C29.7861 47.9244 29.4633 47.6643 29.0719 47.5923C28.8391 47.5495 28.6043 47.5094 28.4258 47.4725C28.0562 47.3959 27.6875 47.3146 27.318 47.2369L27.2683 47.2264C26.824 47.133 26.3797 47.0396 25.9347 46.9492C25.5636 46.8738 25.1901 46.8092 24.82 46.7291Z" fill="#019AF5"/>
<path d="M49.13 65.962C48.5476 65.2839 48.7178 64.3522 49.3375 63.8793C49.9433 63.417 50.7484 63.688 51.0126 64.4473C51.2881 65.2386 50.8139 66.0476 50.2069 66.2384C49.7973 66.3672 49.4468 66.2615 49.13 65.962Z" fill="#E3FFD8"/>
<path d="M70.5856 62.2202C70.6249 62.5091 70.7861 62.7269 71.0016 62.9025C71.2462 63.1019 71.7219 63.0455 71.9023 62.7967C72.2691 62.2907 72.3357 61.7568 72.0267 61.1941C71.8481 60.869 71.5029 60.7196 71.1841 60.8141C70.6789 60.9637 70.4446 61.7492 70.5856 62.2202Z" fill="#E3FFD8"/>
<path d="M30.8394 53.9288C30.8331 53.977 31.1706 54.4945 31.6075 54.4071L48.5423 53.044L48.4833 52.7579C48.4247 52.4454 48.3609 52.1338 48.2966 51.8224C48.2092 51.3987 48.1199 50.9754 48.0316 50.5518C47.9511 50.1658 47.8669 49.7804 47.7919 49.3933C47.7373 49.1116 47.6944 48.8276 47.6472 48.5444C47.6 48.2609 47.5939 47.9627 47.4975 47.6973C47.3669 47.3378 47.1966 47.0937 46.7291 47.1337C46.3551 47.1656 45.9798 47.1831 45.605 47.205C45.1837 47.2296 44.7623 47.2514 44.341 47.2754C43.9429 47.298 43.5448 47.322 43.1468 47.3451C42.7429 47.3686 42.339 47.3916 41.9351 47.4151L41.8058 47.4226C41.4508 47.4432 41.0959 47.4638 40.741 47.4851C40.3604 47.5078 39.9798 47.5321 39.5992 47.5547C39.1954 47.5787 38.7914 47.6008 38.3876 47.625C38.0128 47.6474 37.6381 47.6723 37.2633 47.6944C36.8478 47.7189 36.4322 47.7408 36.0167 47.7647C35.6245 47.7873 35.2323 47.8113 34.84 47.8344C34.442 47.8579 34.0441 47.8845 33.6458 47.9034C33.2956 47.9199 32.9447 47.9235 32.5945 47.9405C32.2238 47.9585 31.7799 48.216 31.7768 48.6577C31.7762 48.7457 31.7595 48.8342 31.743 48.9212L31.7427 48.9227C31.651 49.4086 31.5563 49.8939 31.464 50.3797C31.4045 50.6931 31.3442 51.0064 31.2899 51.3208C31.2391 51.6153 31.2002 51.9119 31.148 52.2061C31.0953 52.5033 31.0297 52.7982 30.9753 53.0951C30.9246 53.3721 30.8762 53.6498 30.8394 53.9288Z" fill="#0876B8"/>
<path d="M34.4542 55.1959C34.084 55.0762 34.1467 54.5344 34.5345 54.5024L49.2684 53.3071C49.3026 53.3042 49.3371 53.3064 49.3707 53.3135L67.9084 57.1109C68.3044 57.194 68.2769 57.7682 67.8747 57.813L48.5126 59.6293C48.4625 59.6349 48.4117 59.6297 48.3637 59.6142L34.4542 55.1959Z" fill="url(#paint10_linear_1_1310)" fill-opacity="0.16"/>
<path d="M19.9887 58.6714C19.9679 59.8636 19.7719 60.8927 19.4176 60.7975C19.1598 60.7282 18.6536 59.699 18.675 58.4705C18.6964 57.242 18.9692 55.8946 19.3189 56.2567C19.4921 56.5267 20.0102 57.4429 19.9887 58.6714Z" fill="#0E0355"/>
</g>
<defs>
<radialGradient id="paint0_radial_1_1310" cx="0" cy="0" r="1" gradientUnits="userSpaceOnUse" gradientTransform="translate(42 -36.5) rotate(90) scale(153 241.587)">
<stop offset="0.172168" stop-color="#061175"/>
<stop offset="0.443787" stop-color="#0856D8"/>
</radialGradient>
<linearGradient id="paint1_linear_1_1310" x1="66.6094" y1="26.7969" x2="67.4297" y2="49.3281" gradientUnits="userSpaceOnUse">
<stop offset="0.495209" stop-color="#0001A8"/>
<stop offset="1" stop-color="#0001B1"/>
</linearGradient>
<linearGradient id="paint2_linear_1_1310" x1="31.7969" y1="35" x2="88.7187" y2="100.242" gradientUnits="userSpaceOnUse">
<stop offset="0.0684094" stop-color="#0304DA"/>
<stop offset="0.626732" stop-color="#0A07A0"/>
</linearGradient>
<linearGradient id="paint3_linear_1_1310" x1="-6.50003" y1="51" x2="31" y2="40" gradientUnits="userSpaceOnUse">
<stop offset="0.349214" stop-color="#223372"/>
<stop offset="1" stop-color="#133DD5"/>
</linearGradient>
<linearGradient id="paint4_linear_1_1310" x1="19.5001" y1="40.5" x2="-0.999938" y2="54" gradientUnits="userSpaceOnUse">
<stop stop-color="#030E4A"/>
<stop offset="1" stop-color="#142156"/>
</linearGradient>
<linearGradient id="paint5_linear_1_1310" x1="-4.50003" y1="37.5" x2="20.5" y2="47" gradientUnits="userSpaceOnUse">
<stop offset="0.180304" stop-color="#0809A9"/>
<stop offset="0.942043" stop-color="#222372"/>
</linearGradient>
<linearGradient id="paint6_linear_1_1310" x1="14.8203" y1="41.5625" x2="57.2636" y2="74.3047" gradientUnits="userSpaceOnUse">
<stop offset="0.109556" stop-color="#D9002B"/>
<stop offset="0.385289" stop-color="#EC1246"/>
<stop offset="0.846431" stop-color="#9D0C40"/>
</linearGradient>
<linearGradient id="paint7_linear_1_1310" x1="46.6136" y1="57.5087" x2="47.9457" y2="81.1799" gradientUnits="userSpaceOnUse">
<stop offset="0.202321" stop-color="#E1002E"/>
<stop offset="0.764988" stop-color="#EB008D"/>
</linearGradient>
<linearGradient id="paint8_linear_1_1310" x1="70" y1="60.5001" x2="31.5" y2="101.5" gradientUnits="userSpaceOnUse">
<stop/>
<stop offset="1" stop-opacity="0"/>
</linearGradient>
<linearGradient id="paint9_linear_1_1310" x1="28.5469" y1="54.3594" x2="30.8438" y2="80.8828" gradientUnits="userSpaceOnUse">
<stop offset="0.202321" stop-color="#E80047"/>
<stop offset="0.764988" stop-color="#E20088"/>
</linearGradient>
<linearGradient id="paint10_linear_1_1310" x1="27.8906" y1="53.8671" x2="60.5759" y2="60.9859" gradientUnits="userSpaceOnUse">
<stop offset="0.0721018" stop-color="#0D153F" stop-opacity="0.4"/>
<stop offset="0.739719" stop-color="#080E30"/>
</linearGradient>
<clipPath id="clip0_1_1310">
<path d="M0 42C0 18.804 18.804 0 42 0V0C65.196 0 84 18.804 84 42V42C84 65.196 65.196 84 42 84V84C18.804 84 0 65.196 0 42V42Z" fill="white"/>
</clipPath>
</defs>
</svg>
