<svg width="84" height="84" viewBox="0 0 84 84" fill="none" xmlns="http://www.w3.org/2000/svg">
<g clip-path="url(#clip0_1_1086)">
<circle cx="42" cy="42" r="42" fill="url(#paint0_linear_1_1086)"/>
<path d="M-1.07812 22.8984C10.462 22.8984 20.5938 35.9655 20.5938 48.4922C20.5938 50.149 19.2506 51.4922 17.5938 51.4922C15.9369 51.4922 14.5938 50.149 14.5938 48.4922C14.5938 38.9933 6.76649 28.8984 -1.07812 28.8984C-8.8903 28.8984 -16.5938 38.9497 -16.5938 48.4922C-16.5938 50.149 -17.9369 51.4922 -19.5938 51.4922C-21.2506 51.4922 -22.5938 50.149 -22.5938 48.4922C-22.5938 35.9318 -12.6047 22.8984 -1.07812 22.8984Z" fill="#9B61FF"/>
<path d="M-1.07812 18.6797C12.7324 18.6797 24.8125 33.6153 24.8125 48.4922C24.8125 50.149 23.4694 51.4922 21.8125 51.4922C20.1556 51.4922 18.8125 50.149 18.8125 48.4922C18.8125 36.682 9.10492 24.6797 -1.07812 24.6797C-11.2296 24.6797 -20.8125 36.6404 -20.8125 48.4922C-20.8125 50.149 -22.1556 51.4922 -23.8125 51.4922C-25.4694 51.4922 -26.8125 50.149 -26.8125 48.4922C-26.8125 33.5828 -14.8722 18.6797 -1.07812 18.6797Z" fill="#2195FF"/>
<path d="M-1.07812 13.9922C15.2745 13.9922 29.5 31.0094 29.5 48.4922C29.5 50.149 28.1569 51.4922 26.5 51.4922C24.8431 51.4922 23.5 50.149 23.5 48.4922C23.5 34.109 11.6991 19.9922 -1.07812 19.9922C-13.8244 19.9922 -25.5 34.0692 -25.5 48.4922C-25.5 50.149 -26.8431 51.4922 -28.5 51.4922C-30.1569 51.4922 -31.5 50.149 -31.5 48.4922C-31.5 30.9776 -17.4121 13.9922 -1.07812 13.9922Z" fill="#35E6E6"/>
<path d="M-1.07812 9.92969C17.488 9.92969 33.5625 28.7542 33.5625 48.4922C33.5625 50.149 32.2194 51.4922 30.5625 51.4922C28.9056 51.4922 27.5625 50.149 27.5625 48.4922C27.5625 31.8762 13.9455 15.9297 -1.07812 15.9297C-16.0711 15.9297 -29.5625 31.8375 -29.5625 48.4922C-29.5625 50.149 -30.9056 51.4922 -32.5625 51.4922C-34.2194 51.4922 -35.5625 50.149 -35.5625 48.4922C-35.5625 28.7228 -19.6241 9.92969 -1.07812 9.92969Z" fill="#14D3A1"/>
<path d="M-1.15625 5.86719C19.6724 5.86719 37.625 26.5359 37.625 48.5703C37.625 50.2272 36.2819 51.5703 34.625 51.5703C32.9681 51.5703 31.625 50.2272 31.625 48.5703C31.625 29.6765 16.1561 11.8672 -1.15625 11.8672C-18.4381 11.8672 -33.7812 29.6387 -33.7812 48.5703C-33.7812 50.2272 -35.1244 51.5703 -36.7812 51.5703C-38.4381 51.5703 -39.7812 50.2272 -39.7812 48.5703C-39.7812 26.5048 -21.9637 5.86719 -1.15625 5.86719Z" fill="#FEDA42"/>
<path d="M-1.07812 -3C24.8459 -3 47 21.8151 47 49C47 50.6569 45.6569 52 44 52C42.3431 52 41 50.6569 41 49C41 24.9867 21.371 3 -1.07812 3C-23.4971 3 -43 24.9505 -43 49C-43 50.6569 -44.3431 52 -46 52C-47.6569 52 -49 50.6569 -49 49C-49 21.7844 -26.9792 -3 -1.07812 -3Z" fill="#FB6849"/>
<path d="M-1.07812 1.33594C22.189 1.33594 42.1562 23.99 42.1562 48.4922C42.1562 50.149 40.8131 51.4922 39.1562 51.4922C37.4994 51.4922 36.1562 50.149 36.1562 48.4922C36.1562 27.1469 18.6949 7.33594 -1.07812 7.33594C-20.8209 7.33594 -38.1562 27.11 -38.1562 48.4922C-38.1562 50.149 -39.4994 51.4922 -41.1562 51.4922C-42.8131 51.4922 -44.1562 50.149 -44.1562 48.4922C-44.1562 23.9591 -24.3232 1.33594 -1.07812 1.33594Z" fill="#FFBC01"/>
<path d="M56.3326 53.3156C55.8744 53.3156 55.5034 52.9444 55.5034 52.4869V43.5622C55.5034 43.1046 55.8745 42.7335 56.3326 42.7335C56.7908 42.7335 57.1618 43.1046 57.1618 43.5622V52.4869C57.1618 52.9446 56.7908 53.3156 56.3326 53.3156Z" fill="#674447"/>
<path d="M61.5551 42.8019C61.5551 45.6863 59.2168 48.0245 56.3325 48.0245C53.4481 48.0245 51.1099 45.6863 51.1099 42.8019C51.1099 39.9175 53.4481 31.0509 56.3325 31.0509C59.2168 31.0511 61.5551 39.9175 61.5551 42.8019Z" fill="#43AB5F"/>
<path d="M61.5551 42.8019C61.5551 45.6863 59.2168 48.0245 56.3325 48.0245C53.4481 48.0245 51.1099 45.6863 51.1099 42.8019C51.1099 39.9175 53.4481 31.0509 56.3325 31.0509C59.2168 31.0511 61.5551 39.9175 61.5551 42.8019Z" fill="#BBDBFE" fill-opacity="0.3"/>
<path d="M56.3324 31.0509C55.6084 31.0509 54.9189 31.6105 54.292 32.4932H54.2922C56.9321 32.4932 59.0721 40.6084 59.0721 43.2483C59.0721 45.5447 57.4515 47.4593 55.2924 47.9196C55.6286 47.9876 55.9761 48.0245 56.3323 48.0245C59.2167 48.0245 61.5549 45.6863 61.5549 42.8019C61.555 39.9175 59.2167 31.0509 56.3324 31.0509Z" fill="#71BE63"/>
<path d="M56.3324 31.0509C55.6084 31.0509 54.9189 31.6105 54.292 32.4932H54.2922C56.9321 32.4932 59.0721 40.6084 59.0721 43.2483C59.0721 45.5447 57.4515 47.4593 55.2924 47.9196C55.6286 47.9876 55.9761 48.0245 56.3323 48.0245C59.2167 48.0245 61.5549 45.6863 61.5549 42.8019C61.555 39.9175 59.2167 31.0509 56.3324 31.0509Z" fill="#BADAFD" fill-opacity="0.3"/>
<path d="M81.4453 75.1289L42.5625 54.3038L43.5469 52.1796C52.9616 52.1796 69.2991 42.6091 99 45.9998C99 56.4616 95.1662 66.022 88.8383 73.3746C84.8637 74.3241 81.4453 75.1289 81.4453 75.1289Z" fill="#9BF4AF"/>
<path d="M81.4453 75.1289L42.5625 54.3038L43.5469 52.1796C52.9616 52.1796 69.2991 42.6091 99 45.9998C99 56.4616 95.1662 66.022 88.8383 73.3746C84.8637 74.3241 81.4453 75.1289 81.4453 75.1289Z" fill="#477468" fill-opacity="0.4"/>
<path d="M43.5469 52.1797C52.1803 52.1797 66.6437 44.1391 91.8867 45.4182C69.4438 45.4375 55.6806 55.4839 48.6328 55.4839L46.664 54.7495L43.4883 52.3063L43.5469 52.1797Z" fill="#9CFFB2"/>
<path d="M43.5469 52.1797C52.1803 52.1797 66.6437 44.1391 91.8867 45.4182C69.4438 45.4375 55.6806 55.4839 48.6328 55.4839L46.664 54.7495L43.4883 52.3063L43.5469 52.1797Z" fill="#477468" fill-opacity="0.7"/>
<path d="M84.4858 59.2731C77.8977 73.8504 59.0366 85.2546 42.0001 85.2546C30.0357 85.2546 15.9264 79.6402 6.27715 71.2433C4.15265 69.3945 1.77759 65.7601 0.111023 62.4387C-1.49296 59.2419 -0.249384 53.6781 0.92852 52.6815C5.28423 48.9961 12.9138 45.3345 23.3182 46.1328C50.1141 48.1886 61.8284 59.0625 84.4858 59.0625V59.2731Z" fill="#9CFFB2"/>
<path d="M84.4858 59.2731C77.8977 73.8504 59.0366 85.2546 42.0001 85.2546C30.0357 85.2546 15.9264 79.6402 6.27715 71.2433C4.15265 69.3945 1.77759 65.7601 0.111023 62.4387C-1.49296 59.2419 -0.249384 53.6781 0.92852 52.6815C5.28423 48.9961 12.9138 45.3345 23.3182 46.1328C50.1141 48.1886 61.8284 59.0625 84.4858 59.0625V59.2731Z" fill="#477468" fill-opacity="0.6"/>
<path d="M74.0705 56.3198C73.5505 56.3198 73.1294 55.8988 73.1294 55.3796V45.252C73.1294 44.7328 73.5504 44.3118 74.0705 44.3118C74.5905 44.3118 75.0114 44.7328 75.0114 45.252V55.3796C75.0114 55.8988 74.5904 56.3198 74.0705 56.3198Z" fill="#674447"/>
<path d="M79.9967 44.3894C79.9967 47.6624 77.3433 50.3158 74.0702 50.3158C70.7972 50.3158 68.1438 47.6624 68.1438 44.3894C68.1438 41.1163 70.7972 31.0547 74.0702 31.0547C77.3433 31.0547 79.9967 41.1161 79.9967 44.3894Z" fill="#43AB5F"/>
<path d="M79.9967 44.3894C79.9967 47.6624 77.3433 50.3158 74.0702 50.3158C70.7972 50.3158 68.1438 47.6624 68.1438 44.3894C68.1438 41.1163 70.7972 31.0547 74.0702 31.0547C77.3433 31.0547 79.9967 41.1161 79.9967 44.3894Z" fill="#BBDBFE" fill-opacity="0.3"/>
<path d="M74.0703 31.0547C73.2487 31.0547 72.4663 31.6898 71.7549 32.6914H71.755C74.7508 32.6914 77.1793 41.9002 77.1793 44.896C77.1793 47.5018 75.3403 49.6745 72.8902 50.197C73.2716 50.2741 73.666 50.316 74.0701 50.316C77.3432 50.316 79.9967 47.6626 79.9967 44.3895C79.9969 41.1161 77.3433 31.0547 74.0703 31.0547Z" fill="#71BE63"/>
<path d="M74.0703 31.0547C73.2487 31.0547 72.4663 31.6898 71.7549 32.6914H71.755C74.7508 32.6914 77.1793 41.9002 77.1793 44.896C77.1793 47.5018 75.3403 49.6745 72.8902 50.197C73.2716 50.2741 73.666 50.316 74.0701 50.316C77.3432 50.316 79.9967 47.6626 79.9967 44.3895C79.9969 41.1161 77.3433 31.0547 74.0703 31.0547Z" fill="#BADAFD" fill-opacity="0.3"/>
</g>
<defs>
<linearGradient id="paint0_linear_1_1086" x1="110.083" y1="70.9584" x2="84" y2="-13.0416" gradientUnits="userSpaceOnUse">
<stop stop-color="#84C8F2"/>
<stop offset="1" stop-color="#C2DDFF"/>
</linearGradient>
<clipPath id="clip0_1_1086">
<path d="M0 42C0 18.804 18.804 0 42 0V0C65.196 0 84 18.804 84 42V42C84 65.196 65.196 84 42 84V84C18.804 84 0 65.196 0 42V42Z" fill="white"/>
</clipPath>
</defs>
</svg>
