<svg width="84" height="84" viewBox="0 0 84 84" fill="none" xmlns="http://www.w3.org/2000/svg">
<g clip-path="url(#clip0_1_1132)">
<path d="M0 42C0 18.804 18.804 0 42 0V0C65.196 0 84 18.804 84 42V42C84 65.196 65.196 84 42 84V84C18.804 84 0 65.196 0 42V42Z" fill="url(#paint0_linear_1_1132)"/>
<path opacity="0.4" d="M94.0976 19.3121C102.506 25.2206 104.852 24.1153 108.128 22.9529C115.239 20.4297 120.644 18.3329 126.86 20.8529V51.24L42.6083 48.5728C32.799 48.216 43.9523 43.3744 46.4724 42.6088C48.9923 41.8433 51.1786 41.1446 52.9358 40.2197C55.0223 39.1215 56.5835 37.2606 58.4077 35.8095C60.0828 34.4771 61.673 33.9311 63.6857 33.3186C67.373 32.1963 72.5396 31.6889 75.1164 28.5808C80.8283 21.6911 87.4643 14.651 94.0976 19.3121Z" fill="url(#paint1_linear_1_1132)"/>
<path d="M0 47.04H84V47.04C84 67.4525 67.4524 84 47.04 84H36.96C16.5476 84 0 67.4525 0 47.04V47.04Z" fill="url(#paint2_linear_1_1132)"/>
<path d="M96.236 77.3954C94.892 77.3954 32.5185 62.7799 30.8 62.1074C23.072 59.0834 53.5015 55.2718 47.852 53.7073C42.392 52.1953 20.132 52 20.132 52L15.008 52.3633C15.008 52.3633 14.3895 52.6624 14 52.8673C27.524 53.092 41.1697 53.5379 41.5056 54.2344C41.8414 54.9309 10.1258 57.4614 15.848 63.424C25.844 73.84 51.7074 84.4514 51.7074 84.4514H96.236V77.3954Z" fill="#2A3020"/>
<path d="M32.7627 21.8321C24.3541 27.7406 22.008 26.6354 18.732 25.4729C11.6213 22.9498 6.21601 20.8529 0 23.3729V53.76L84.252 51.0928C94.0613 50.736 82.908 45.8944 80.388 45.1288C77.868 44.3633 75.6818 43.6646 73.9245 42.7397C71.838 41.6416 70.2768 39.7806 68.4526 38.3295C66.7776 36.9971 65.1874 36.4511 63.1747 35.8386C59.4873 34.7163 54.3207 34.2089 51.744 31.1009C46.032 24.2111 39.396 17.171 32.7627 21.8321Z" fill="url(#paint3_linear_1_1132)"/>
<path d="M47.7734 49.5167C54.9521 41.839 61.8095 42.1002 62.5934 42.2427C61.4271 40.8724 59.7408 39.9836 57.9685 39.6727C56.1961 39.3617 54.3468 39.6102 52.6691 40.2607C50.2529 41.1974 48.1104 43.0733 47.3113 45.5384C46.882 46.863 46.8957 48.4358 47.7734 49.5167Z" fill="#145335"/>
<path d="M49.4106 45.8349C54.5752 41.4997 57.4779 40.7457 62.5935 42.2427C61.4272 40.8724 59.7408 39.9836 57.9685 39.6727C56.1962 39.3617 54.3469 39.6102 52.6691 40.2607C50.253 41.1974 48.1104 43.0733 47.3114 45.5384C46.882 46.863 48.2127 46.8405 49.4106 45.8349Z" fill="#5AAF34"/>
<path d="M57.0287 43.4969C56.7514 44.3141 56.5981 45.1966 56.6182 46.0597C56.7827 53.1116 57.5533 60.386 59.8528 67.4731H64.8666C61.9262 60.3106 60.5314 51.6025 59.7712 42.1947C59.7949 41.7431 59.1678 41.5645 58.7347 41.689C57.908 41.9266 57.306 42.6797 57.0287 43.4969Z" fill="#412C0E"/>
<mask id="mask0_1_1132" style="mask-type:alpha" maskUnits="userSpaceOnUse" x="56" y="41" width="9" height="27">
<path d="M57.0287 43.4969C56.7514 44.3141 56.5981 45.1966 56.6182 46.0597C56.7827 53.1116 57.5533 60.386 59.8528 67.4731H64.8666C61.9262 60.3106 60.5314 51.6025 59.7712 42.1947C59.7949 41.7431 59.1678 41.5645 58.7347 41.689C57.908 41.9266 57.306 42.6797 57.0287 43.4969Z" fill="#372C10"/>
</mask>
<g mask="url(#mask0_1_1132)">
<path d="M59.0988 48.4359C59.0988 48.1028 59.3689 47.8328 59.702 47.8328H62.1146C62.4477 47.8328 62.7178 48.1028 62.7178 48.4359V48.4359C62.7178 48.769 62.4477 49.0391 62.1146 49.0391H59.702C59.3689 49.0391 59.0988 48.769 59.0988 48.4359V48.4359Z" fill="#251408"/>
<path d="M54.4998 52.5072C54.4998 52.1741 54.7698 51.9041 55.1029 51.9041H57.5155C57.8487 51.9041 58.1187 52.1741 58.1187 52.5072V52.5072C58.1187 52.8404 57.8487 53.1104 57.5155 53.1104H55.1029C54.7698 53.1104 54.4998 52.8404 54.4998 52.5072V52.5072Z" fill="#251408"/>
<path d="M60.9083 58.3126C60.9083 57.9795 61.1783 57.7095 61.5115 57.7095H63.9241C64.2572 57.7095 64.5273 57.9795 64.5273 58.3126V58.3126C64.5273 58.6457 64.2572 58.9158 63.9241 58.9158H61.5115C61.1783 58.9158 60.9083 58.6457 60.9083 58.3126V58.3126Z" fill="#251408"/>
<path d="M56.3092 62.3839C56.3092 62.0508 56.5793 61.7808 56.9124 61.7808H59.325C59.6581 61.7808 59.9282 62.0508 59.9282 62.3839V62.3839C59.9282 62.7171 59.6581 62.9871 59.325 62.9871H56.9124C56.5793 62.9871 56.3092 62.7171 56.3092 62.3839V62.3839Z" fill="#251408"/>
</g>
<path opacity="0.4" d="M57.0287 43.497C56.7514 44.3142 56.5981 45.1967 56.6182 46.0598C56.7827 53.1117 57.5533 60.3861 59.8528 67.4732H62.7178C62.7178 67.4732 57.8926 55.7116 57.6177 42.4422C57.6093 42.0397 57.1579 43.1163 57.0287 43.497Z" fill="#4D3B17"/>
<path d="M59.3523 42.0434C59.2954 42.2543 59.1694 42.504 58.9511 42.4958C58.7653 42.2589 58.5758 42.0276 58.3826 41.8018C56.7147 39.8525 54.7727 38.3143 52.6149 37.1657C50.5575 36.0705 48.3039 35.3295 45.9047 34.9238C45.6647 34.8832 45.4232 34.8459 45.1803 34.812C44.8964 34.8052 44.9873 34.3501 45.1818 34.1432C46.7366 32.4893 49.1513 31.7702 51.4022 32.0642C53.6531 32.3582 55.7231 33.5926 57.2517 35.2707C58.9127 37.0941 59.9945 39.662 59.3523 42.0434Z" fill="#5AAF34"/>
<path d="M58.9511 42.4958C59.1694 42.504 59.2954 42.2543 59.3523 42.0434C59.9945 39.662 58.9127 37.0941 57.2517 35.2707C55.7231 33.5926 53.6531 32.3582 51.4022 32.0642C49.1513 31.7702 46.7366 32.4893 45.1818 34.1432C44.9999 34.3366 44.9087 34.7471 45.1296 34.8052C46.3829 34.1295 47.8147 33.7341 49.3352 33.7341C53.88 33.7341 57.3764 37.2671 57.9 41.2575C58.0633 41.4352 58.2242 41.6167 58.3826 41.8018C58.5758 42.0276 58.7653 42.2589 58.9511 42.4958Z" fill="#145335"/>
<path d="M58.957 39.67C58.9123 40.5371 59.0236 41.4566 59.5379 42.1562C62.7931 35.9203 70.1441 35.6564 70.1441 35.6564C72.5567 35.8449 69.3525 32.1882 66.9021 32.0751C66.1102 31.9814 65.3128 32.0748 64.5557 32.3254C61.4504 33.3533 59.1255 36.4033 58.957 39.67Z" fill="#5AAF34"/>
<path d="M58.957 39.6701C58.9123 40.5372 59.0236 41.4567 59.5379 42.1563C59.9791 41.5195 60.2345 40.9023 60.7575 40.331C60.9837 37.2775 64.3932 31.9118 69.8048 33.5455C69.8519 33.5619 69.8986 33.5784 69.9449 33.595C69.1822 32.7422 68.0345 32.1623 66.9104 32.0292C66.1185 31.9355 65.3128 32.0749 64.5557 32.3255C61.4504 33.3535 59.1255 36.4034 58.957 39.6701Z" fill="#145335"/>
<path d="M61.9261 43.6861C61.1354 43.0931 59.9134 42.5955 58.9799 42.2709C58.5764 42.1307 58.4042 41.607 58.543 41.203C58.6819 40.7991 59.0509 40.5135 59.4425 40.3428C60.0517 40.0773 60.7366 40.0376 61.3996 40.0835C63.9487 40.2602 66.4289 41.6893 67.7259 43.8909C68.9378 45.9479 69.8852 52.7243 68.1838 50.3962C67.4676 49.4161 65.6204 46.4569 61.9261 43.6861Z" fill="#145335"/>
<path d="M58.6088 41.3111C62.0769 41.6504 64.4519 44.0253 66.1106 45.7971C67.7692 47.5689 67.9409 43.5519 65.8467 41.8766C62.2654 39.0116 58.3826 40.1425 58.6088 41.3111Z" fill="#5AAF34"/>
<path d="M59.1268 43.976C59.1268 45.5167 58.1041 46.0871 56.5634 46.0871C55.0228 46.0871 54 45.5167 54 43.976C54 42.4354 55.244 40.8094 56.5634 40.8094C57.8828 40.8094 59.1268 42.4354 59.1268 43.976Z" fill="#75D745"/>
<path d="M61.0116 42.1666C61.0116 43.7072 59.9888 44.2776 58.4482 44.2776C56.9075 44.2776 55.8848 43.7072 55.8848 42.1666C55.8848 40.6259 57.1288 39 58.4482 39C59.7676 39 61.0116 40.6259 61.0116 42.1666Z" fill="#88E45B"/>
<path d="M62.9721 44.8053C62.9721 46.3459 61.9493 46.9163 60.4086 46.9163C58.868 46.9163 57.8452 46.3459 57.8452 44.8053C57.8452 43.2646 59.0892 41.6387 60.4086 41.6387C61.728 41.6387 62.9721 43.2646 62.9721 44.8053Z" fill="#5AAF34"/>
<path d="M67.0551 68.5594C65.5945 68.9935 64.2174 68.5594 64.2174 68.5594C64.2174 68.5594 60.7537 69.3649 60.7537 67.7347C60.7537 66.1045 62.6501 65.6077 64.2174 65.6077C65.7846 65.6077 67.0551 66.9292 67.0551 68.5594Z" fill="#225207"/>
<path d="M62.8542 67.5091C61.3936 67.9432 60.0164 67.5091 60.0164 67.5091C60.0164 67.5091 56.5527 68.3146 56.5527 66.6844C56.5527 65.0542 58.4492 64.5574 60.0164 64.5574C61.5837 64.5574 62.8542 65.8789 62.8542 67.5091Z" fill="#225207"/>
<path d="M70.2057 66.4591C68.7451 66.8932 67.368 66.4591 67.368 66.4591C67.368 66.4591 63.9043 67.2645 63.9043 65.6343C63.9043 64.0041 65.8008 63.5073 67.368 63.5073C68.9352 63.5073 70.2057 64.8289 70.2057 66.4591Z" fill="#225207"/>
<path d="M96.236 77.3955C94.892 77.3955 32.5185 62.7799 30.8 62.1075C23.072 59.0835 53.5015 55.2719 47.852 53.7074C42.392 52.1954 21.132 53 21.132 53L16.008 53.3633C16.008 53.3633 15.3895 53.6625 15 53.8673C28.524 54.0921 41.1697 53.538 41.5056 54.2344C41.8414 54.9309 10.1258 57.4615 15.848 63.424C25.844 73.84 51.7074 84.4515 51.7074 84.4515H96.236V77.3955Z" fill="#002B23"/>
<path d="M17.1545 44.3853C16.7457 43.7185 16.0623 43.2388 15.3126 43.0923C14.5628 42.9457 13.7576 43.1345 13.142 43.6012C13.0536 43.6682 12.9601 43.7846 13.0178 43.8811C13.3199 43.7349 13.6752 43.8001 13.9966 43.8922C14.8608 44.1398 15.6773 44.5641 16.3854 45.1335C15.6007 45.2007 14.8579 45.6712 14.443 46.3639C14.0282 47.0565 13.9515 47.9544 14.2425 48.7117C14.8592 47.6618 15.6984 46.7526 16.6835 46.0669C16.7859 46.408 16.782 46.7727 16.764 47.1294C16.621 49.9679 15.6208 52.7537 13.9381 55C14.5415 54.9315 15.1357 54.7756 15.6977 54.5383C15.8564 54.4713 16.0163 54.3952 16.1376 54.2699C16.2729 54.1301 16.3485 53.9415 16.4181 53.7572C17.1567 51.8004 17.5942 49.7221 17.709 47.6245C17.7373 47.1083 17.7438 46.5757 17.5669 46.0921C18.5964 46.4545 19.5091 47.1633 20.1331 48.085C20.3895 47.3765 20.2418 46.5363 19.7871 45.9438C19.3324 45.3514 18.5942 45.0147 17.8633 45.0303C18.7887 44.3645 19.8489 43.7518 20.9719 43.8495C21.039 43.7774 20.9737 43.6594 20.9044 43.5897C20.3814 43.0639 19.5787 42.8884 18.8707 43.0685C18.1626 43.2486 17.5541 43.7541 17.1545 44.3853Z" fill="#2C4053"/>
<path d="M16.9999 55.8863C16.1655 56.1343 15.3787 55.8863 15.3787 55.8863C15.3787 55.8863 13.3999 56.3464 13.3999 55.4151C13.3999 54.4838 14.4834 54.2 15.3787 54.2C16.2741 54.2 16.9999 54.9549 16.9999 55.8863Z" fill="#1B2F2D"/>
<path d="M15.6 55.2864C14.7656 55.5344 13.9788 55.2864 13.9788 55.2864C13.9788 55.2864 12 55.7466 12 54.8152C12 53.8839 13.0834 53.6001 13.9788 53.6001C14.8742 53.6001 15.6 54.3551 15.6 55.2864Z" fill="#1B2F2D"/>
<path d="M18.2 54.9053C17.5046 55.1119 16.849 54.9053 16.849 54.9053C16.849 54.9053 15.2 55.2887 15.2 54.5126C15.2 53.7365 16.1028 53.5 16.849 53.5C17.5951 53.5 18.2 54.1292 18.2 54.9053Z" fill="#1B2F2D"/>
<path opacity="0.800059" fill-rule="evenodd" clip-rule="evenodd" d="M24.3809 0.336592C24.3607 0.172141 24.4777 0.0224589 24.6421 0.00226692C24.8066 -0.0179251 24.9563 0.0990195 24.9764 0.26347L26.1951 10.1889C26.2153 10.3534 26.0984 10.5031 25.9339 10.5233C25.7695 10.5434 25.6198 10.4265 25.5996 10.2621L24.3809 0.336592ZM59.1762 2.75527C59.0117 2.77546 58.8948 2.92515 58.915 3.0896L59.8899 11.03C59.9101 11.1944 60.0598 11.3114 60.2242 11.2912C60.3887 11.271 60.5056 11.1213 60.4854 10.9568L59.5105 3.01647C59.4903 2.85202 59.3406 2.73508 59.1762 2.75527ZM60.1195 39.4493C59.9551 39.4695 59.8382 39.6192 59.8583 39.7837L60.8333 47.724C60.8535 47.8885 61.0032 48.0054 61.1676 47.9852C61.3321 47.9651 61.449 47.8154 61.4288 47.6509L60.4539 39.7106C60.4337 39.5461 60.284 39.4292 60.1195 39.4493ZM31.6663 7.45151C31.6461 7.28706 31.763 7.13738 31.9275 7.11719C32.0919 7.09699 32.2416 7.21394 32.2618 7.37839L32.6274 10.356C32.6476 10.5205 32.5307 10.6702 32.3662 10.6904C32.2018 10.7105 32.0521 10.5936 32.0319 10.4291L31.6663 7.45151ZM33.4921 22.3091C33.4889 22.157 33.6013 22.0243 33.7555 22.0054C33.92 21.9852 34.0696 22.1021 34.0898 22.2666L34.0898 22.2666L34.4554 25.2442C34.4756 25.4087 34.3587 25.5584 34.1942 25.5785C34.0298 25.5987 33.8801 25.4818 33.8599 25.3173L33.4943 22.3397C33.493 22.3294 33.4923 22.3192 33.4921 22.3091ZM37.4116 51.7818C37.2574 51.8007 37.145 51.9334 37.1482 52.0855C37.1484 52.0956 37.1491 52.1058 37.1504 52.1161L37.516 55.0937L37.516 55.0938C37.5362 55.2582 37.6859 55.3751 37.8503 55.3549L37.8504 55.3549C38.0148 55.3347 38.1317 55.185 38.1115 55.0206L37.7459 52.043C37.727 51.8888 37.5942 51.7764 37.4422 51.7796C37.4321 51.7798 37.4219 51.7805 37.4116 51.7818ZM38.9762 66.9736C38.973 66.8216 39.0855 66.6889 39.2396 66.67C39.2456 66.6692 39.2516 66.6687 39.2575 66.6683L39.2703 66.6678C39.4223 66.6646 39.555 66.777 39.574 66.9312L39.9396 69.9088C39.9598 70.0732 39.8428 70.2229 39.6784 70.2431C39.6728 70.2438 39.6672 70.2443 39.6616 70.2447C39.657 70.245 39.6523 70.2452 39.6477 70.2453C39.4957 70.2485 39.363 70.1361 39.344 69.9819L38.9784 67.0043C38.9772 66.994 38.9764 66.9838 38.9762 66.9736ZM41.0677 81.5582C40.9032 81.5783 40.7863 81.728 40.8065 81.8925L41.1721 84.8701C41.191 85.0243 41.3238 85.1367 41.4758 85.1335C41.4822 85.1334 41.4886 85.133 41.4951 85.1325L41.5064 85.1313C41.6709 85.1111 41.7878 84.9614 41.7676 84.797L41.402 81.8194C41.3831 81.6652 41.2503 81.5528 41.0983 81.5559C41.0882 81.5562 41.078 81.5569 41.0677 81.5582ZM57.8339 27.1197L57.8339 27.1198L58.1995 30.0974C58.2197 30.2619 58.3694 30.3788 58.5338 30.3586C58.6983 30.3384 58.8152 30.1887 58.795 30.0243L58.4294 27.0466C58.4269 27.0261 58.4224 27.0063 58.416 26.9874C58.3716 26.8551 58.239 26.7678 58.0951 26.7854C57.9307 26.8056 57.8137 26.9553 57.8339 27.1197ZM50.0343 23.5968L50.0343 23.5968L50.3999 26.5745C50.4201 26.7389 50.5697 26.8559 50.7342 26.8357C50.8986 26.8155 51.0156 26.6658 50.9954 26.5013L50.6298 23.5237C50.6273 23.5031 50.6227 23.4833 50.6164 23.4644C50.5719 23.3322 50.4394 23.2448 50.2955 23.2625C50.131 23.2827 50.0141 23.4323 50.0343 23.5968ZM36.3956 40.501C36.2415 40.5199 36.1291 40.6527 36.1322 40.8047C36.1325 40.8148 36.1332 40.8251 36.1344 40.8353L36.5 43.813C36.5202 43.9774 36.6699 44.0944 36.8344 44.0742L36.8344 44.0742C36.9988 44.054 37.1158 43.9043 37.0956 43.7399L36.73 40.7622C36.711 40.608 36.5783 40.4956 36.4263 40.4988C36.4211 40.4989 36.4158 40.4992 36.4106 40.4996C36.4056 40.4999 36.4006 40.5004 36.3956 40.501ZM51.982 39.4469C51.9788 39.2949 52.0912 39.1622 52.2454 39.1432C52.4098 39.123 52.5595 39.24 52.5797 39.4044L52.9453 42.3821C52.9655 42.5465 52.8486 42.6962 52.6841 42.7164L52.6841 42.7164C52.5197 42.7366 52.37 42.6196 52.3498 42.4552L51.9842 39.4776C51.9829 39.4673 51.9822 39.4571 51.982 39.4469ZM54.1953 55.024C54.0411 55.0429 53.9287 55.1756 53.9319 55.3277C53.9321 55.3378 53.9328 55.348 53.9341 55.3583L54.2997 58.3359C54.3199 58.5004 54.4696 58.6173 54.634 58.5971L54.634 58.5971C54.7985 58.5769 54.9154 58.4273 54.8952 58.2628L54.5296 55.2852C54.5107 55.131 54.3779 55.0186 54.2259 55.0218C54.2158 55.022 54.2056 55.0227 54.1953 55.024ZM55.8818 71.2084C55.8786 71.0564 55.991 70.9236 56.1452 70.9047C56.3096 70.8845 56.4593 71.0015 56.4795 71.1659L56.8451 74.1436C56.8653 74.308 56.7484 74.4577 56.5839 74.4779C56.5736 74.4791 56.5634 74.4799 56.5533 74.4801C56.4013 74.4833 56.2685 74.3708 56.2496 74.2167L55.884 71.239C55.8833 71.2332 55.8827 71.2273 55.8823 71.2215L55.8818 71.2084ZM79.7838 49.0005L79.7838 49.0005C79.7636 48.836 79.8806 48.6864 80.045 48.6662L80.0451 48.6662C80.2095 48.646 80.3591 48.763 80.3793 48.9274L80.7449 51.905C80.7626 52.0489 80.6753 52.1815 80.543 52.2259C80.5241 52.2323 80.5043 52.2368 80.4837 52.2394C80.3398 52.257 80.2073 52.1697 80.1628 52.0374C80.1565 52.0185 80.1519 51.9987 80.1494 51.9781L79.7838 49.0005ZM47.4293 8.82172C47.4091 8.65727 47.526 8.50759 47.6905 8.4874C47.8549 8.46721 48.0046 8.58415 48.0248 8.7486L48.3904 11.7262C48.4106 11.8907 48.2936 12.0404 48.1292 12.0606C47.9647 12.0808 47.8151 11.9638 47.7949 11.7994L47.4293 8.82172ZM45.88 62.2725C45.8598 62.108 45.9768 61.9583 46.1412 61.9381C46.3057 61.9179 46.4553 62.0349 46.4755 62.1993L46.8411 65.177C46.8613 65.3414 46.7444 65.4911 46.5799 65.5113C46.4155 65.5315 46.2658 65.4146 46.2456 65.2501L45.88 62.2725ZM65.9528 17.331C65.7883 17.3511 65.6714 17.5008 65.6916 17.6653L66.0572 20.6429C66.0773 20.8074 66.227 20.9243 66.3915 20.9041C66.5559 20.8839 66.6729 20.7342 66.6527 20.5698L66.2871 17.5922C66.2669 17.4277 66.1172 17.3108 65.9528 17.331ZM67.9027 33.2117C67.7382 33.2319 67.6213 33.3816 67.6415 33.546L68.0071 36.5237C68.0273 36.6881 68.1769 36.805 68.3414 36.7849C68.5058 36.7647 68.6228 36.615 68.6026 36.4505L68.237 33.4729C68.2168 33.3084 68.0671 33.1915 67.9027 33.2117ZM69.5914 49.4268C69.5712 49.2623 69.6881 49.1126 69.8526 49.0924C70.017 49.0722 70.1667 49.1892 70.1869 49.3536L70.5525 52.3313C70.5727 52.4957 70.4557 52.6454 70.2913 52.6656C70.1268 52.6858 69.9772 52.5688 69.957 52.4044L69.5914 49.4268ZM17.6469 9.31608C17.6267 9.15163 17.7436 9.00195 17.9081 8.98176C18.0725 8.96156 18.2222 9.07851 18.2424 9.24296L18.608 12.2206C18.6282 12.385 18.5113 12.5347 18.3468 12.5549C18.1824 12.5751 18.0327 12.4582 18.0125 12.2937L17.6469 9.31608ZM25.697 32.4353C25.6768 32.2709 25.7937 32.1212 25.9582 32.101C26.1226 32.0808 26.2723 32.1978 26.2925 32.3622L26.6581 35.3399C26.6783 35.5043 26.5613 35.654 26.3969 35.6742C26.3866 35.6754 26.3764 35.6762 26.3663 35.6764C26.2142 35.6796 26.0815 35.5672 26.0626 35.413L25.697 32.4353ZM19.858 24.8625C19.6935 24.8827 19.5766 25.0324 19.5968 25.1968L19.9624 28.1745C19.9826 28.3389 20.1323 28.4559 20.2967 28.4357C20.4612 28.4155 20.5781 28.2658 20.5579 28.1013L20.1923 25.1237C20.1721 24.9592 20.0224 24.8423 19.858 24.8625ZM21.5467 41.0776C21.5265 40.9131 21.6434 40.7634 21.8079 40.7432C21.9723 40.723 22.122 40.84 22.1422 41.0044L22.5078 43.9821C22.528 44.1465 22.4111 44.2962 22.2466 44.3164L22.2466 44.3164C22.1027 44.3341 21.9701 44.2467 21.9257 44.1145C21.9194 44.0956 21.9148 44.0758 21.9123 44.0552L21.5467 41.0776ZM23.7578 56.624C23.5934 56.6442 23.4764 56.7938 23.4966 56.9583L23.8622 59.9359C23.8647 59.9565 23.8693 59.9763 23.8756 59.9952C23.92 60.1275 24.0526 60.2148 24.1965 60.1971L24.1965 60.1971C24.361 60.1769 24.4779 60.0273 24.4577 59.8628L24.0921 56.8852C24.0719 56.7207 23.9223 56.6038 23.7578 56.624ZM27.3964 22.7198C27.3762 22.5553 27.4932 22.4056 27.6576 22.3854C27.8221 22.3653 27.9718 22.4822 27.9919 22.6467L28.3576 25.6243C28.3778 25.7887 28.2608 25.9384 28.0964 25.9586C28.0861 25.9599 28.0759 25.9606 28.0657 25.9608C27.9137 25.964 27.781 25.8516 27.762 25.6974L27.3964 22.7198ZM41.6075 44.2662C41.4534 44.2851 41.3409 44.4179 41.3441 44.5699L41.3446 44.5812C41.345 44.5876 41.3455 44.594 41.3463 44.6005L41.7119 47.5782C41.7309 47.7323 41.8636 47.8447 42.0156 47.8416C42.0258 47.8413 42.036 47.8406 42.0463 47.8394C42.2107 47.8192 42.3277 47.6695 42.3075 47.505L41.9419 44.5274L41.9419 44.5274C41.9216 44.3629 41.772 44.246 41.6075 44.2662ZM26.4966 67.9583C26.4764 67.7938 26.5934 67.6442 26.7578 67.624C26.9223 67.6038 27.0719 67.7207 27.0921 67.8852L27.4577 70.8628C27.4779 71.0273 27.361 71.1769 27.1965 71.1971C27.0321 71.2173 26.8824 71.1004 26.8622 70.9359L26.4966 67.9583ZM11.7578 64.624C11.5934 64.6442 11.4764 64.7938 11.4966 64.9583L11.8622 67.9359C11.8824 68.1004 12.0321 68.2173 12.1965 68.1971C12.361 68.1769 12.4779 68.0273 12.4577 67.8628L12.0921 64.8852C12.0719 64.7207 11.9223 64.6038 11.7578 64.624ZM51.4966 80.9583C51.4764 80.7938 51.5934 80.6442 51.7578 80.624C51.9223 80.6038 52.0719 80.7207 52.0921 80.8852L52.4577 83.8628C52.4779 84.0273 52.361 84.1769 52.1965 84.1971C52.0321 84.2173 51.8824 84.1004 51.8622 83.9359L51.4966 80.9583ZM30.7578 80.624C30.5934 80.6442 30.4764 80.7938 30.4966 80.9583L30.8622 83.9359C30.8824 84.1004 31.0321 84.2173 31.1965 84.1971C31.361 84.1769 31.4779 84.0273 31.4577 83.8628L31.0921 80.8852C31.0719 80.7207 30.9223 80.6038 30.7578 80.624ZM47.4966 48.9583C47.4764 48.7938 47.5934 48.6442 47.7578 48.624C47.9223 48.6038 48.0719 48.7207 48.0921 48.8852L48.4577 51.8628C48.4779 52.0273 48.361 52.1769 48.1965 52.1971C48.0321 52.2173 47.8824 52.1004 47.8622 51.9359L47.4966 48.9583ZM67.7578 68.624C67.5934 68.6442 67.4764 68.7938 67.4966 68.9583L67.8622 71.9359C67.8824 72.1004 68.0321 72.2173 68.1965 72.1971C68.361 72.1769 68.4779 72.0273 68.4577 71.8628L68.0921 68.8852C68.0719 68.7207 67.9223 68.6038 67.7578 68.624ZM76.4966 63.9583C76.4764 63.7938 76.5934 63.6442 76.7578 63.624C76.9223 63.6038 77.0719 63.7207 77.0921 63.8852L77.4577 66.8628C77.4779 67.0273 77.361 67.1769 77.1965 67.1971C77.0321 67.2173 76.8824 67.1004 76.8622 66.9359L76.4966 63.9583ZM66.7578 58.624C66.5934 58.6442 66.4764 58.7938 66.4966 58.9583L66.8622 61.9359C66.8824 62.1004 67.0321 62.2173 67.1965 62.1971C67.361 62.1769 67.4779 62.0273 67.4577 61.8628L67.0921 58.8852C67.0719 58.7207 66.9223 58.6038 66.7578 58.624ZM6.4966 58.9583C6.47641 58.7938 6.59335 58.6442 6.7578 58.624C6.92226 58.6038 7.07194 58.7207 7.09213 58.8852L7.45774 61.8628C7.47793 62.0273 7.36098 62.1769 7.19653 62.1971C7.03208 62.2173 6.8824 62.1004 6.86221 61.9359L6.4966 58.9583ZM15.7578 50.624C15.5934 50.6442 15.4764 50.7938 15.4966 50.9583L15.8622 53.9359C15.8824 54.1004 16.0321 54.2173 16.1965 54.1971C16.361 54.1769 16.4779 54.0273 16.4577 53.8628L16.0921 50.8852C16.0719 50.7207 15.9223 50.6038 15.7578 50.624ZM19.4966 71.9583C19.4764 71.7938 19.5934 71.6442 19.7578 71.624C19.9223 71.6038 20.0719 71.7207 20.0921 71.8852L20.6877 75.4199C20.7078 75.5844 20.5909 75.734 20.4265 75.7542C20.262 75.7744 20.1123 75.6575 20.0921 75.493L19.4966 71.9583ZM6.68684 24.4928C6.66664 24.3284 6.78359 24.1787 6.94804 24.1585C7.11249 24.1383 7.26217 24.2552 7.28236 24.4197L7.89171 29.3824C7.9119 29.5469 7.79496 29.6966 7.63051 29.7168C7.46606 29.7369 7.31637 29.62 7.29618 29.4556L6.68684 24.4928ZM8.75861 41.3661C8.73842 41.2017 8.85537 41.052 9.01982 41.0318C9.0301 41.0305 9.04032 41.0298 9.05045 41.0296C9.20247 41.0264 9.33521 41.1388 9.35414 41.293L9.96349 46.2557C9.98368 46.4202 9.86674 46.5698 9.70229 46.59C9.53784 46.6102 9.38815 46.4933 9.36796 46.3288L8.75861 41.3661ZM13.1634 74.7784C12.9989 74.7985 12.882 74.9482 12.9022 75.1127L13.5115 80.0754C13.5317 80.2399 13.6814 80.3568 13.8458 80.3366C13.8664 80.3341 13.8862 80.3295 13.9051 80.3232C14.0374 80.2788 14.1247 80.1462 14.107 80.0023L13.4977 75.0396C13.4775 74.8751 13.3279 74.7582 13.1634 74.7783L13.1634 74.7784ZM29.0457 48.8592C29.0281 48.7154 29.1154 48.5828 29.2477 48.5383C29.2666 48.532 29.2864 48.5274 29.3069 48.5249C29.4714 48.5047 29.6211 48.6217 29.6413 48.7861L30.2506 53.7489C30.2683 53.8927 30.1809 54.0253 30.0487 54.0698C30.0298 54.0761 30.01 54.0807 29.9894 54.0832C29.825 54.1034 29.6753 53.9864 29.6551 53.822L29.0457 48.8592ZM0.758615 48.3661C0.738423 48.2017 0.855367 48.052 1.01982 48.0318C1.18427 48.0116 1.33395 48.1285 1.35414 48.293L1.96349 53.2557C1.98368 53.4202 1.86674 53.5698 1.70229 53.59C1.53784 53.6102 1.38815 53.4933 1.36796 53.3288L0.758615 48.3661ZM2.66955 36.0461C2.5051 36.0662 2.38816 36.2159 2.40835 36.3804L2.89583 40.3506C2.91602 40.515 3.0657 40.632 3.23015 40.6118C3.3946 40.5916 3.51155 40.4419 3.49136 40.2774L3.00388 36.3073C2.98369 36.1428 2.83401 36.0259 2.66955 36.0461ZM69.9972 23.7212C69.977 23.5568 70.094 23.4071 70.2584 23.3869C70.4229 23.3667 70.5725 23.4837 70.5927 23.6481L70.7146 24.6406C70.7348 24.8051 70.6179 24.9548 70.4534 24.975C70.289 24.9952 70.1393 24.8782 70.1191 24.7138L69.9972 23.7212ZM72.3127 42.5796C72.2925 42.4151 72.4095 42.2655 72.5739 42.2453C72.7384 42.2251 72.8881 42.342 72.9083 42.5065L73.0301 43.499C73.0503 43.6635 72.9334 43.8132 72.7689 43.8334C72.6045 43.8535 72.4548 43.7366 72.4346 43.5721L72.3127 42.5796ZM40.2584 11.3869C40.094 11.4071 39.977 11.5568 39.9972 11.7212L40.1191 12.7138C40.1393 12.8782 40.289 12.9952 40.4534 12.975C40.6179 12.9548 40.7348 12.8051 40.7146 12.6406L40.5927 11.6481C40.5725 11.4837 40.4229 11.3667 40.2584 11.3869ZM42.5739 30.2453C42.4095 30.2655 42.2925 30.4151 42.3127 30.5796L42.4346 31.5721C42.4548 31.7366 42.6045 31.8535 42.7689 31.8333C42.9334 31.8132 43.0503 31.6635 43.0301 31.499L42.9083 30.5065C42.8881 30.342 42.7384 30.2251 42.5739 30.2453ZM9.81714 14.0642C9.65269 14.0844 9.53575 14.2341 9.55594 14.3985L10.7746 24.324C10.7948 24.4884 10.9445 24.6054 11.109 24.5852C11.2734 24.565 11.3904 24.4153 11.3702 24.2509L10.1515 14.3254C10.1313 14.1609 9.98159 14.044 9.81714 14.0642ZM45.9919 35.9819C45.8274 36.0021 45.7105 36.1518 45.7307 36.3162L46.0963 39.2939C46.1165 39.4583 46.2662 39.5753 46.4306 39.5551C46.5951 39.5349 46.712 39.3852 46.6918 39.2208L46.3262 36.2431C46.306 36.0787 46.1564 35.9617 45.9919 35.9819ZM55.9002 13.3497C55.8801 13.1853 55.997 13.0356 56.1614 13.0154C56.3259 12.9952 56.4756 13.1121 56.4958 13.2766L56.8614 16.2542C56.8816 16.4187 56.7646 16.5684 56.6002 16.5886C56.4357 16.6087 56.286 16.4918 56.2659 16.3273L55.9002 13.3497ZM75.3037 14.8217C75.2835 14.6573 75.4005 14.5076 75.5649 14.4874C75.7294 14.4672 75.879 14.5842 75.8992 14.7486L76.5086 19.7113C76.5288 19.8758 76.4118 20.0255 76.2474 20.0457C76.0829 20.0659 75.9332 19.9489 75.913 19.7845L75.3037 14.8217ZM77.3755 31.695C77.3553 31.5306 77.4722 31.3809 77.6367 31.3607C77.8011 31.3405 77.9508 31.4574 77.971 31.6219L78.5804 36.5846C78.6005 36.7491 78.4836 36.8988 78.3192 36.9189C78.1547 36.9391 78.005 36.8222 77.9848 36.6577L77.3755 31.695ZM81.7802 65.1073C81.6158 65.1274 81.4988 65.2771 81.519 65.4416L82.1284 70.4043C82.1486 70.5688 82.2983 70.6857 82.4627 70.6655C82.6272 70.6453 82.7441 70.4956 82.7239 70.3312L82.1146 65.3685C82.0944 65.204 81.9447 65.0871 81.7802 65.1073ZM63.5908 79.3149C63.5706 79.1504 63.6876 79.0007 63.852 78.9805C64.0165 78.9604 64.1661 79.0773 64.1863 79.2417L64.7957 84.2045C64.8159 84.3689 64.6989 84.5186 64.5345 84.5388C64.37 84.559 64.2204 84.442 64.2002 84.2776L63.5908 79.3149Z" fill="url(#paint4_linear_1_1132)" fill-opacity="0.8"/>
</g>
<defs>
<linearGradient id="paint0_linear_1_1132" x1="35.112" y1="-2.94" x2="45.276" y2="59.64" gradientUnits="userSpaceOnUse">
<stop stop-color="#AEC3D8"/>
<stop offset="0.47806" stop-color="#80A6B9"/>
<stop offset="1" stop-color="#5E929F"/>
</linearGradient>
<linearGradient id="paint1_linear_1_1132" x1="83.0001" y1="18" x2="82.7502" y2="51.24" gradientUnits="userSpaceOnUse">
<stop stop-color="#5E6E7A"/>
<stop offset="1" stop-color="#6C93A6"/>
</linearGradient>
<linearGradient id="paint2_linear_1_1132" x1="46.5" y1="54.0001" x2="-22" y2="94.5001" gradientUnits="userSpaceOnUse">
<stop stop-color="#39661E"/>
<stop offset="1" stop-color="#106F36"/>
</linearGradient>
<linearGradient id="paint3_linear_1_1132" x1="41" y1="-5.5" x2="44" y2="57" gradientUnits="userSpaceOnUse">
<stop offset="0.611244" stop-color="#597C91"/>
<stop offset="1" stop-color="#617981"/>
</linearGradient>
<linearGradient id="paint4_linear_1_1132" x1="32.4999" y1="-16" x2="57.8989" y2="100.696" gradientUnits="userSpaceOnUse">
<stop stop-color="#667A7D"/>
<stop offset="0.619407" stop-color="white" stop-opacity="0.65"/>
</linearGradient>
<clipPath id="clip0_1_1132">
<path d="M0 42C0 18.804 18.804 0 42 0V0C65.196 0 84 18.804 84 42V42C84 65.196 65.196 84 42 84V84C18.804 84 0 65.196 0 42V42Z" fill="white"/>
</clipPath>
</defs>
</svg>
