<svg width="84" height="84" viewBox="0 0 84 84" fill="none" xmlns="http://www.w3.org/2000/svg">
<g clip-path="url(#clip0_1_784)">
<circle cx="42" cy="42" r="42" fill="url(#paint0_linear_1_784)"/>
<path opacity="0.9" fill-rule="evenodd" clip-rule="evenodd" d="M22.1266 23.8693H30.8984C33.6006 23.8693 35.7913 21.667 35.7913 18.9503C35.7913 16.2337 33.6006 14.0314 30.8984 14.0314C30.0829 14.0314 29.3141 14.232 28.6379 14.5867C27.6965 11.8414 25.1041 9.86926 22.0536 9.86926C18.2081 9.86926 15.0907 13.0033 15.0907 16.8693C15.0907 16.9485 15.092 17.0274 15.0946 17.106C13.972 17.7123 13.2088 18.9039 13.2088 20.2747C13.2088 22.2599 14.8096 23.8693 16.7843 23.8693H22.0536C22.0646 23.8693 22.1266 23.8693 22.1266 23.8693H22.0536H22.1266Z" fill="#E9E9F1"/>
<path fill-rule="evenodd" clip-rule="evenodd" d="M42.452 82.4344C42.452 86.6223 39.0542 90.0172 34.8627 90.0172C30.6712 90.0172 27.2734 86.6223 27.2734 82.4344C27.2734 78.2465 30.6712 74.8517 34.8627 74.8517C39.0542 74.8517 42.452 78.2465 42.452 82.4344" fill="#9AD190"/>
<path fill-rule="evenodd" clip-rule="evenodd" d="M42.452 82.4344C42.452 86.6223 39.0542 90.0172 34.8627 90.0172C30.6712 90.0172 27.2734 86.6223 27.2734 82.4344C27.2734 78.2465 30.6712 74.8517 34.8627 74.8517C39.0542 74.8517 42.452 78.2465 42.452 82.4344" fill="#8DBBA5"/>
<path fill-rule="evenodd" clip-rule="evenodd" d="M46.9164 73.811C46.9164 77.9989 43.5186 81.3937 39.3271 81.3937C35.1356 81.3937 31.7378 77.9989 31.7378 73.811C31.7378 69.6231 35.1356 66.2283 39.3271 66.2283C43.5186 66.2283 46.9164 69.6231 46.9164 73.811" fill="#9AD190"/>
<path fill-rule="evenodd" clip-rule="evenodd" d="M46.9164 73.811C46.9164 77.9989 43.5186 81.3937 39.3271 81.3937C35.1356 81.3937 31.7378 77.9989 31.7378 73.811C31.7378 69.6231 35.1356 66.2283 39.3271 66.2283C43.5186 66.2283 46.9164 69.6231 46.9164 73.811" fill="#8DBBA5"/>
<path fill-rule="evenodd" clip-rule="evenodd" d="M62.6902 97.1351H109.565V49.3447H62.6902V97.1351Z" fill="#D4A3C6"/>
<path fill-rule="evenodd" clip-rule="evenodd" d="M103.352 38.2761H48.1069V54.9657H113.732L103.352 38.2761" fill="#98567D"/>
<path fill-rule="evenodd" clip-rule="evenodd" d="M63.1181 97.3023H32.761V49.5119L48.2369 38.5736L63.1181 49.5119V97.3023" fill="#DCAFD2"/>
<path fill-rule="evenodd" clip-rule="evenodd" d="M30.581 54.4889L28.9141 52.3943L48.29 37L66.0725 51.6663L64.3676 53.7302L48.2587 40.4443L30.581 54.4889" fill="#76486D"/>
<path fill-rule="evenodd" clip-rule="evenodd" d="M108.252 79.1078H65.382C65.0222 79.1078 64.8102 78.7046 65.0146 78.4084L70.7892 70.0451C70.8722 69.9247 71.0097 69.8524 71.1566 69.8524H103.174C103.33 69.8524 103.475 69.9336 103.556 70.067L108.633 78.4303C108.814 78.7278 108.599 79.1078 108.252 79.1078" fill="#98567D"/>
<path fill-rule="evenodd" clip-rule="evenodd" d="M38.0625 97.3769H57.9286V77.974H38.0625V97.3769Z" fill="#8C736A"/>
<path fill-rule="evenodd" clip-rule="evenodd" d="M58.5982 97.3769H57.2589V78.6431H38.7321V97.3769H37.3928V77.974C37.3928 77.6047 37.6924 77.3049 38.0625 77.3049H57.9285C58.2982 77.3049 58.5982 77.6047 58.5982 77.974V97.3769" fill="#DDDEFE"/>
<path fill-rule="evenodd" clip-rule="evenodd" d="M71.228 67.1204H78.1722V58.7401H71.228V67.1204Z" fill="#8DA6DC"/>
<path fill-rule="evenodd" clip-rule="evenodd" d="M71.8976 66.4513H77.5025V59.4097H71.8976V66.4513ZM78.1722 67.7895H71.228C70.8583 67.7895 70.5583 67.4897 70.5583 67.1204V58.7406C70.5583 58.3713 70.8583 58.0715 71.228 58.0715H78.1722C78.5423 58.0715 78.8418 58.3713 78.8418 58.7406V67.1204C78.8418 67.4897 78.5423 67.7895 78.1722 67.7895Z" fill="#DDDEFE"/>
<path fill-rule="evenodd" clip-rule="evenodd" d="M70.8374 97.4513H78.3151V81.9138H70.8374V97.4513Z" fill="#9E764F"/>
<path fill-rule="evenodd" clip-rule="evenodd" d="M78.9847 97.4513H77.6454V82.5834H71.507V97.4513H70.1677V81.9143C70.1677 81.545 70.4677 81.2452 70.8374 81.2452H78.315C78.6851 81.2452 78.9847 81.545 78.9847 81.9143V97.4513" fill="#FCFCFC"/>
<path fill-rule="evenodd" clip-rule="evenodd" d="M53.6704 57.3721C53.4954 54.1726 50.8512 51.6293 47.6048 51.6293C44.3584 51.6293 41.7142 54.1726 41.5392 57.3721H41.5222V68.57H53.6874V57.3721H53.6704" fill="#8DA6DC"/>
<path fill-rule="evenodd" clip-rule="evenodd" d="M42.1918 67.9009H53.0177V57.5197L53.0016 57.4087C52.8449 54.5433 50.4744 52.2983 47.6048 52.2983C44.7351 52.2983 42.3646 54.5433 42.2074 57.4087L42.1918 57.5224V67.9009ZM53.6874 69.2391H41.5222C41.1521 69.2391 40.8525 68.9393 40.8525 68.57V57.3721C40.8525 57.3052 40.8624 57.24 40.8807 57.1789C41.1525 53.6793 44.0762 50.9602 47.6048 50.9602C51.1333 50.9602 54.0566 53.6793 54.3284 57.1789C54.3467 57.24 54.357 57.3052 54.357 57.3721V68.57C54.357 68.9393 54.057 69.2391 53.6874 69.2391Z" fill="#DDDEFE"/>
<path fill-rule="evenodd" clip-rule="evenodd" d="M46.9351 68.31H48.2743V51.5834H46.9351V68.31Z" fill="#DDDEFE"/>
<path fill-rule="evenodd" clip-rule="evenodd" d="M41.6338 58.125H53.6128V56.7869H41.6338V58.125Z" fill="#DDDEFE"/>
<path fill-rule="evenodd" clip-rule="evenodd" d="M72.2141 90.2402H76.9387V83.7726H72.2141V90.2402Z" fill="#9CC1DC"/>
<path fill-rule="evenodd" clip-rule="evenodd" d="M39.625 97.3398H41.0629V78.6453H39.625V97.3398Z" fill="#B99068"/>
<path fill-rule="evenodd" clip-rule="evenodd" d="M39.625 97.3398H41.0629V78.6453H39.625V97.3398Z" fill="#A78885"/>
<path fill-rule="evenodd" clip-rule="evenodd" d="M42.1816 97.3398H43.6196V78.6453H42.1816V97.3398Z" fill="#B99068"/>
<path fill-rule="evenodd" clip-rule="evenodd" d="M42.1816 97.3398H43.6196V78.6453H42.1816V97.3398Z" fill="#A78885"/>
<path fill-rule="evenodd" clip-rule="evenodd" d="M44.7383 97.3398H46.1762V78.6453H44.7383V97.3398Z" fill="#B99068"/>
<path fill-rule="evenodd" clip-rule="evenodd" d="M44.7383 97.3398H46.1762V78.6453H44.7383V97.3398Z" fill="#A78885"/>
<path fill-rule="evenodd" clip-rule="evenodd" d="M47.2949 97.3398H48.7329V78.6453H47.2949V97.3398Z" fill="#B99068"/>
<path fill-rule="evenodd" clip-rule="evenodd" d="M47.2949 97.3398H48.7329V78.6453H47.2949V97.3398Z" fill="#A78885"/>
<path fill-rule="evenodd" clip-rule="evenodd" d="M49.8513 97.3398H51.2897V78.6453H49.8513V97.3398Z" fill="#B99068"/>
<path fill-rule="evenodd" clip-rule="evenodd" d="M49.8513 97.3398H51.2897V78.6453H49.8513V97.3398Z" fill="#A78885"/>
<path fill-rule="evenodd" clip-rule="evenodd" d="M52.4084 97.3398H53.8468V78.6453H52.4084V97.3398Z" fill="#B99068"/>
<path fill-rule="evenodd" clip-rule="evenodd" d="M52.4084 97.3398H53.8468V78.6453H52.4084V97.3398Z" fill="#A78885"/>
<path fill-rule="evenodd" clip-rule="evenodd" d="M54.9651 97.3398H56.4035V78.6453H54.9651V97.3398Z" fill="#B99068"/>
<path fill-rule="evenodd" clip-rule="evenodd" d="M54.9651 97.3398H56.4035V78.6453H54.9651V97.3398Z" fill="#A78885"/>
<path fill-rule="evenodd" clip-rule="evenodd" d="M65.1482 80.3715H108.493V79.0333H65.1482V80.3715Z" fill="#32424F"/>
<path fill-rule="evenodd" clip-rule="evenodd" d="M63.1182 56.2111H113.721V54.8729H63.1182V56.2111Z" fill="#6C3D62"/>
<path fill-rule="evenodd" clip-rule="evenodd" d="M71.2839 62.697H78.2411V61.3589H71.2839V62.697Z" fill="#DDDEFE"/>
<path fill-rule="evenodd" clip-rule="evenodd" d="M103.761 77.5279H78.4641C78.094 77.5279 77.7944 77.2282 77.7944 76.8589C77.7944 76.4896 78.094 76.1898 78.4641 76.1898H103.761C104.131 76.1898 104.431 76.4896 104.431 76.8589C104.431 77.2282 104.131 77.5279 103.761 77.5279" fill="#32424F"/>
<path fill-rule="evenodd" clip-rule="evenodd" d="M89.9223 74.8517H70.354C69.9843 74.8517 69.6843 74.5519 69.6843 74.1826C69.6843 73.8133 69.9843 73.5135 70.354 73.5135H89.9223C90.2924 73.5135 90.5919 73.8133 90.5919 74.1826C90.5919 74.5519 90.2924 74.8517 89.9223 74.8517" fill="#32424F"/>
<path fill-rule="evenodd" clip-rule="evenodd" d="M93.1963 72.3243H77.3481C76.978 72.3243 76.6785 72.0246 76.6785 71.6553C76.6785 71.2859 76.978 70.9862 77.3481 70.9862H93.1963C93.566 70.9862 93.866 71.2859 93.866 71.6553C93.866 72.0246 93.566 72.3243 93.1963 72.3243" fill="#32424F"/>
<path fill-rule="evenodd" clip-rule="evenodd" d="M75.3391 77.3794H68.7168C68.3471 77.3794 68.0471 77.0796 68.0471 76.7103C68.0471 76.341 68.3471 76.0413 68.7168 76.0413H75.3391C75.7087 76.0413 76.0087 76.341 76.0087 76.7103C76.0087 77.0796 75.7087 77.3794 75.3391 77.3794" fill="#32424F"/>
<path fill-rule="evenodd" clip-rule="evenodd" d="M92.4521 52.6985H69.9074C69.5378 52.6985 69.2378 52.3987 69.2378 52.0294C69.2378 51.6601 69.5378 51.3604 69.9074 51.3604H92.4521C92.8222 51.3604 93.1217 51.6601 93.1217 52.0294C93.1217 52.3987 92.8222 52.6985 92.4521 52.6985" fill="#6C3D62"/>
<path fill-rule="evenodd" clip-rule="evenodd" d="M96.3953 49.5017H67.0056C66.6359 49.5017 66.3359 49.202 66.3359 48.8326C66.3359 48.4633 66.6359 48.1636 67.0056 48.1636H96.3953C96.7654 48.1636 97.065 48.4633 97.065 48.8326C97.065 49.202 96.7654 49.5017 96.3953 49.5017" fill="#6C3D62"/>
<path fill-rule="evenodd" clip-rule="evenodd" d="M105.92 46.1564H67.9731C67.603 46.1564 67.3035 45.8566 67.3035 45.4873C67.3035 45.118 67.603 44.8182 67.9731 44.8182H105.92C106.289 44.8182 106.589 45.118 106.589 45.4873C106.589 45.8566 106.289 46.1564 105.92 46.1564" fill="#6C3D62"/>
<path fill-rule="evenodd" clip-rule="evenodd" d="M82.0355 43.3315H58.4489C58.0793 43.3315 57.7793 43.0318 57.7793 42.6625C57.7793 42.2931 58.0793 41.9934 58.4489 41.9934H82.0355C82.4052 41.9934 82.7052 42.2931 82.7052 42.6625C82.7052 43.0318 82.4052 43.3315 82.0355 43.3315" fill="#6C3D62"/>
<path fill-rule="evenodd" clip-rule="evenodd" d="M101.381 40.7294H55.6963C55.3262 40.7294 55.0266 40.4296 55.0266 40.0603C55.0266 39.691 55.3262 39.3912 55.6963 39.3912H101.381C101.751 39.3912 102.05 39.691 102.05 40.0603C102.05 40.4296 101.751 40.7294 101.381 40.7294" fill="#6C3D62"/>
<path opacity="0.9" fill-rule="evenodd" clip-rule="evenodd" d="M66.043 32.8693H56.6447C53.7494 32.8693 51.4023 30.5097 51.4023 27.599C51.4023 24.6883 53.7494 22.3287 56.6447 22.3287C57.5184 22.3287 58.3422 22.5436 59.0666 22.9236C60.0753 19.9823 62.8528 17.8693 66.1213 17.8693C70.2415 17.8693 73.5816 21.2271 73.5816 25.3693C73.5816 25.4542 73.5802 25.5387 73.5774 25.6229C74.7801 26.2725 75.5979 27.5492 75.5979 29.0179C75.5979 31.145 73.8827 32.8693 71.7669 32.8693H66.1213C66.1095 32.8693 66.043 32.8693 66.043 32.8693H66.1213H66.043Z" fill="#E9E9F1"/>
</g>
<defs>
<linearGradient id="paint0_linear_1_784" x1="-18.8033" y1="37.903" x2="45.0005" y2="115.902" gradientUnits="userSpaceOnUse">
<stop stop-color="#445FE2"/>
<stop offset="1" stop-color="#5385AC"/>
</linearGradient>
<clipPath id="clip0_1_784">
<path d="M0 42C0 18.804 18.804 0 42 0V0C65.196 0 84 18.804 84 42V42C84 65.196 65.196 84 42 84V84C18.804 84 0 65.196 0 42V42Z" fill="white"/>
</clipPath>
</defs>
</svg>
