<svg width="84" height="84" viewBox="0 0 84 84" fill="none" xmlns="http://www.w3.org/2000/svg">
<g clip-path="url(#clip0_1_557)">
<circle cx="42.2329" cy="42" r="42" fill="url(#paint0_linear_1_557)"/>
<circle cx="52" cy="20" r="7" fill="#F0FFA8" fill-opacity="0.21386"/>
<path fill-rule="evenodd" clip-rule="evenodd" d="M-18.9006 48.616C-35.7685 40.8587 -53.5738 64.3681 -53.5738 64.3681L-41.767 83.0001H42L42.3154 66.4805C42.3154 66.4805 39.1942 66.0294 37.9726 65.7124C19.4808 60.9139 -1.80902 56.4762 -18.9006 48.616Z" fill="#249189"/>
<path opacity="0.137416" fill-rule="evenodd" clip-rule="evenodd" d="M43.6542 19.9348C26.0041 19.0853 -1.76627 -4.38855 22.5404 2.28761C59.7437 12.506 111.939 -12.5746 126.976 -1.6399C142.014 9.29478 124.094 5.6621 122.873 5.97907C116.94 7.51861 111.299 11.6888 104.441 10.6112C85.8456 7.68933 83.2943 21.8426 43.6542 19.9348Z" fill="white"/>
<path fill-rule="evenodd" clip-rule="evenodd" d="M61.6457 58.616C96.1218 61.9872 100.96 73.9191 100.96 73.9191V102.97H-17L-16.4425 75.3205C-16.4425 75.3205 -14.7673 69.2058 -3.37943 68.4822C18.7733 67.0746 49.0054 57.38 61.6457 58.616Z" fill="#235359"/>
<path d="M52.7464 63.6253C52.7464 63.9979 52.4443 64.3 52.0717 64.3V64.3C51.699 64.3 51.397 63.9979 51.397 63.6253V61.5852C51.397 61.2126 51.699 60.9105 52.0717 60.9105V60.9105C52.4443 60.9105 52.7464 61.2126 52.7464 61.5852V63.6253Z" fill="#5C1D1D"/>
<path fill-rule="evenodd" clip-rule="evenodd" d="M48.621 48.6878L47.5235 48.078L51.7683 32L57.0967 47.6088L55.5522 48.078L59.9023 61.8469L44.241 62.5832L48.621 48.6878Z" fill="#328282"/>
<path d="M65.8074 59.7909C65.8074 60.067 65.5835 60.2909 65.3074 60.2909V60.2909C65.0312 60.2909 64.8074 60.067 64.8074 59.7909V58.1C64.8074 57.8238 65.0312 57.6 65.3074 57.6V57.6C65.5835 57.6 65.8074 57.8238 65.8074 58.1V59.7909Z" fill="#5C1D1D"/>
<path fill-rule="evenodd" clip-rule="evenodd" d="M62.6174 48.1862L61.8137 47.7436L64.9224 36.0728L68.8248 47.403L67.6936 47.7436L70.8795 57.7383L59.4097 58.2728L62.6174 48.1862Z" fill="#328282"/>
<path d="M77.9519 61.1365C77.9519 61.4126 77.728 61.6365 77.4519 61.6365V61.6365C77.1758 61.6365 76.9519 61.4126 76.9519 61.1365V60.1183C76.9519 59.8421 77.1758 59.6183 77.4519 59.6183V59.6183C77.728 59.6183 77.9519 59.8421 77.9519 60.1183V61.1365Z" fill="#5C1D1D"/>
<path fill-rule="evenodd" clip-rule="evenodd" d="M75.654 53.5666L75.1339 53.2715L77.1455 45.491L79.6705 53.0444L78.9386 53.2715L81.0001 59.9347L73.5784 60.291L75.654 53.5666Z" fill="#328282"/>
<path d="M30.0481 63.9497C30.0481 64.2258 29.8242 64.4497 29.5481 64.4497V64.4497C29.272 64.4497 29.0481 64.2258 29.0481 63.9497V62.2588C29.0481 61.9826 29.272 61.7588 29.5481 61.7588V61.7588C29.8242 61.7588 30.0481 61.9826 30.0481 62.2588V63.9497Z" fill="#5C1D1D"/>
<path fill-rule="evenodd" clip-rule="evenodd" d="M27.453 55.1572L26.8384 54.8085L29.2156 45.6133L32.1998 54.5401L31.3348 54.8085L33.7711 62.6831L25 63.1042L27.453 55.1572Z" fill="#328282"/>
<path opacity="0.137416" fill-rule="evenodd" clip-rule="evenodd" d="M-25.5743 55.8121C-44.2479 54.9133 -73.6289 30.0781 -47.9126 37.1415C-8.55176 47.9524 46.6701 21.4174 62.5801 32.9862C78.4901 44.555 60.1244 41.2292 58.2382 41.047C-5.40613 34.8979 16.3647 57.8305 -25.5743 55.8121Z" fill="white"/>
</g>
<defs>
<linearGradient id="paint0_linear_1_557" x1="0.23291" y1="0" x2="0.23291" y2="84" gradientUnits="userSpaceOnUse">
<stop stop-color="#6FA7DE"/>
<stop offset="1" stop-color="#91DDFF"/>
</linearGradient>
<clipPath id="clip0_1_557">
<path d="M0 42C0 18.804 18.804 0 42 0V0C65.196 0 84 18.804 84 42V42C84 65.196 65.196 84 42 84V84C18.804 84 0 65.196 0 42V42Z" fill="white"/>
</clipPath>
</defs>
</svg>
